<svg width="49" height="45" viewBox="0 0 49 45" fill="none" xmlns="http://www.w3.org/2000/svg">
<path d="M29.3082 15.5893C29.2561 15.5377 29.1518 15.5377 29.0997 15.5893C28.9955 15.6926 28.8912 15.7958 28.787 15.6926C28.6828 15.641 28.7349 15.4861 28.787 15.3828C28.8391 15.2796 28.8391 15.228 28.787 15.1247C28.7349 15.0731 28.7349 15.0215 28.5785 14.9699C28.5264 15.8474 27.6926 16.2604 27.432 17.0347C27.3277 17.2928 27.0672 17.5509 27.432 17.809C27.4841 17.8606 27.4841 17.9639 27.3799 18.0155C27.1193 18.222 26.9629 18.0671 26.7023 17.9639C26.4939 17.8606 26.2854 17.7058 26.3896 17.4993C26.546 17.0347 26.7023 17.6025 26.8587 17.5509C26.9108 17.3444 26.9629 17.1379 27.0672 16.9315C25.8685 16.9831 25.3994 17.3444 25.1388 18.3252C24.9825 18.893 25.3994 19.7706 25.9727 19.9771C26.1291 20.0287 26.2333 20.0803 26.1812 20.2352C26.1812 20.3384 26.1291 20.5449 25.9727 20.5449C25.5558 20.5965 25.6079 20.803 25.66 21.1127C25.7642 21.6805 25.3994 22.1967 25.3994 22.8162C25.3994 22.9194 25.2431 23.0227 25.1388 23.0227C25.0867 23.0227 24.9825 22.9194 24.9825 22.8162C24.9825 22.6613 24.9304 22.4032 24.9825 22.2483C25.3473 21.474 24.9825 20.6997 24.774 19.9771C24.6697 19.6157 24.2007 19.2544 23.8359 19.2027C23.3147 19.0995 23.002 18.5317 22.3766 18.6349C22.2724 18.6349 22.1681 18.5317 22.2203 18.3768C22.3245 18.222 22.3766 18.0155 22.6893 18.1187C23.2105 18.2736 23.6795 18.6349 24.2007 18.7898C24.3049 18.8414 24.4092 18.893 24.5655 18.9446C24.5655 18.2736 24.6176 17.7058 25.0346 17.1896C25.191 16.9831 25.1388 16.8798 24.9304 16.725C24.5134 16.4669 24.1486 16.2088 23.7838 15.9507C23.1062 15.4861 23.1062 14.815 23.1062 14.144C23.1062 13.731 23.002 13.7826 22.6372 13.7826C21.9076 13.8342 22.0118 14.3504 21.9597 14.815C21.7512 16.312 21.5427 17.809 21.4385 19.3576C21.2822 21.1643 20.9173 22.971 21.1258 24.8294C21.1779 25.3456 21.0216 25.8101 21.1258 26.3264C21.1779 26.5328 21.0216 26.6361 20.8131 26.6361C20.6046 26.6361 20.5525 26.5328 20.5525 26.378C20.5525 25.8101 20.6046 25.2939 20.0314 24.9326C19.7708 24.7261 19.6665 24.2615 19.5102 23.9002C19.4581 23.797 19.5102 23.6937 19.3538 23.6937C19.2496 23.6937 19.1975 23.797 19.1975 23.8486C19.2496 24.7777 19.0933 25.6553 19.2496 26.5845C19.3017 26.7393 19.406 26.7909 19.5623 26.8426C20.9695 26.9458 22.3245 27.2039 23.7316 26.9974C23.8359 26.9974 23.888 27.049 23.9922 27.049C24.4092 27.1007 24.7219 27.1523 24.8783 26.5845C25.0346 26.0682 25.5037 25.6037 25.8685 25.1391C27.015 23.8486 28.1616 22.6097 29.3603 21.3708C30.2984 20.39 31.3407 19.5125 32.2267 18.5317C33.269 17.3444 34.4677 16.312 35.5622 15.1247C36.813 13.8342 38.2201 12.647 39.5751 11.4081C40.3569 10.6338 41.2429 10.0143 42.2852 9.60137C43.0148 9.34327 43.7966 8.93031 44.6305 9.03355C45.4643 9.13679 46.1418 9.60138 46.663 10.2724C46.8715 10.5305 47.0278 10.8403 47.1321 11.15C47.4448 12.0275 48.018 12.7502 47.9659 13.731C47.9138 15.4345 47.3405 16.9315 46.5067 18.3768C46.0897 19.0995 45.6728 19.8222 45.2559 20.5449C44.9432 21.0611 44.422 21.4224 44.0572 21.8354C43.5881 22.4032 43.3275 23.1259 42.7543 23.6937C42.2852 24.1583 41.7119 24.2615 41.1908 24.5713C41.5556 24.1583 41.9204 23.7453 42.2331 23.3324C43.0148 22.3 43.9008 21.3708 44.6305 20.3384C45.3601 19.2544 45.9855 18.1187 46.6109 16.9315C47.2363 15.6926 47.6011 14.4021 47.2884 13.1116C47.0278 11.9759 46.6109 10.7886 45.5686 10.066C44.8389 9.60138 43.7445 9.54976 43.0148 10.0143C42.7021 10.2208 42.5979 10.9435 42.9627 11.2532C43.8487 12.0791 43.536 12.9567 43.2233 13.8342C43.067 14.2988 42.8064 14.7118 42.5979 15.1247C42.4937 15.3312 42.3373 15.4861 42.1289 15.4345C41.8683 15.3828 41.9204 15.1247 41.9725 14.9183C42.0246 14.4537 41.9725 13.9891 41.8683 13.4729C41.6598 12.6986 41.4513 11.9243 40.9302 11.2532C40.8259 11.15 40.7217 11.0984 40.6175 11.2016C40.0963 11.6662 39.6273 12.0791 39.1061 12.5437C38.9497 12.647 39.054 12.8018 39.054 12.9567C39.1582 13.6794 39.7315 14.2988 39.6794 15.0731C39.6794 16.2604 39.6273 17.396 39.054 18.4801C38.8455 18.8414 38.6892 19.2544 38.5849 19.6673C38.5328 19.8738 38.4286 20.0287 38.2201 20.0287C37.9595 20.0287 37.9595 19.7706 38.0116 19.6157C38.1159 18.7898 37.8032 18.0155 37.5947 17.2412C37.4384 16.7766 37.4905 16.2604 37.2299 15.7958C37.0735 15.5377 37.0214 15.228 36.6566 15.5377C36.6045 15.5893 36.5003 15.6409 36.4481 15.5377C36.1354 14.9183 35.927 15.4861 35.8227 15.641C35.4579 16.1055 35.041 16.4669 34.5719 16.7766C34.155 17.0347 34.3114 17.2928 34.5198 17.5509C35.041 18.2736 35.3537 19.0995 35.4579 19.9254C35.5622 20.8546 35.4058 21.8354 35.2495 22.7646C35.1973 22.971 35.1452 23.2808 34.8325 23.2291C34.5198 23.1775 34.5198 22.9194 34.5719 22.7129C34.7804 21.6805 34.3114 21.0095 33.5817 20.3384C33.2169 20.0287 32.9042 19.6673 32.4873 19.3576C32.2267 19.1511 32.1225 19.2544 31.9661 19.4092C31.6013 19.8222 31.2365 20.1835 30.8195 20.5449C30.6632 20.7514 30.6632 20.9062 30.8195 21.2159C31.3928 22.0935 31.7576 23.0227 32.0704 24.0551C32.2267 24.5713 32.0182 25.0358 32.0182 25.552C32.0182 25.6553 31.914 25.9134 31.7055 25.9134C31.4971 25.9134 31.3928 25.6553 31.3928 25.552C31.4971 24.5196 30.559 24.1067 30.0899 23.4356C29.8293 23.0227 29.2561 23.0227 28.787 22.8678C28.6828 22.8162 28.6307 22.9194 28.5264 22.971C27.432 24.1583 26.2854 25.2423 25.3994 26.5845C25.0867 26.9974 25.1388 27.1007 25.66 27.1523C26.2854 27.2039 26.8587 27.049 27.4841 27.049C29.0476 26.9974 30.6111 26.7393 32.1225 26.5328C33.9987 26.2231 35.927 26.0682 37.7511 25.6553C39.6273 25.2423 41.5035 24.8294 43.3275 24.2099C44.7347 23.7453 46.0376 22.971 47.1321 21.887C47.4448 21.5773 47.3405 21.1643 47.3926 20.803C47.3926 20.6997 47.2884 20.5449 47.1842 20.5965C46.663 20.9062 46.4545 20.3384 46.0897 20.1835C45.9334 20.1319 45.9334 19.9771 45.9334 19.8738C45.9855 19.6673 46.1418 19.8222 46.2461 19.8738C46.5067 19.9771 46.663 20.0287 46.8194 19.719C46.8715 19.6157 47.1321 19.5641 47.3926 19.7706C48.2786 20.5449 48.6434 21.5257 48.6956 22.6613C48.6956 23.1259 48.5392 23.6421 48.2265 23.9002C47.1842 24.6745 47.2363 25.8101 47.0799 26.8942C47.0278 27.3071 47.0278 27.7201 46.9236 28.1847C46.6109 29.1655 46.7151 30.1463 46.3503 31.127C46.2982 31.2819 46.2982 31.4368 46.4545 31.5916C46.5067 31.6432 46.5067 31.7981 46.5067 31.8497C45.9855 32.2627 46.0897 32.9338 45.9334 33.45C45.777 33.8629 45.6207 34.2243 45.4643 34.6372C45.0995 35.8761 44.7347 37.0634 44.6305 38.3539C44.5262 39.5411 43.9529 40.3671 42.8064 40.78C42.0246 41.0898 41.1386 41.2446 40.4611 41.8124C39.94 42.2254 39.3146 42.4319 38.7413 42.7932C38.6892 42.7932 38.6892 42.8448 38.637 42.8448C37.3341 42.7416 36.0833 43.1546 34.8325 43.3094C33.9987 43.4127 33.1127 43.5159 32.2267 43.6708C31.0801 43.8773 29.8815 43.9289 28.7349 44.0321C27.9531 44.0837 27.2235 44.187 26.4418 44.0837C26.1812 44.0321 25.7642 44.0321 25.66 44.4967C25.6079 44.7032 25.3473 44.7032 25.2431 44.5483C24.9304 43.9289 24.357 44.1354 23.888 44.1354C23.6274 44.1354 23.2626 44.1354 23.002 44.3418C22.8457 44.4451 22.6372 44.3935 22.4287 44.2902C21.23 43.8256 19.9792 43.774 18.7284 43.6192C18.3115 43.5675 17.8425 43.9805 17.5298 43.3094C17.5298 43.2578 17.4255 43.2578 17.3734 43.2578C16.748 43.5159 16.3832 43.1546 15.9141 42.8448C15.2887 42.4319 14.5591 42.4319 13.8816 42.1222C13.621 42.0189 13.3604 41.9157 13.0998 42.1738C13.0477 42.277 12.9435 42.1738 12.8393 42.1738C11.6927 41.606 10.3898 41.5027 9.29533 40.8317C8.72204 40.4703 8.25299 39.9541 7.57548 39.7476C7.47124 39.696 7.36701 39.5928 7.26278 39.5411C6.95008 39.4895 6.84584 39.4379 6.89796 39.0766C7.00219 38.7668 6.68949 38.5087 6.48103 38.2506C6.48103 38.3023 6.42891 38.3023 6.42891 38.3023C6.37679 38.5604 6.42891 39.0249 6.11621 39.0249C5.69928 39.0249 5.85563 38.5604 5.85563 38.3023C5.85563 36.8569 5.33446 35.5148 4.96965 34.1726C4.5006 32.4175 4.08366 30.6108 3.71885 28.8041C3.45826 27.4104 3.14556 26.0682 2.83286 24.6745C2.78075 24.3648 2.67651 23.9518 2.88498 23.6937C3.19768 23.3324 2.98921 23.1259 2.78075 22.7646C2.15534 21.7321 2.10323 20.5965 2.57228 19.5125C2.72863 19.0995 3.19768 18.9963 3.61461 18.893C4.03155 18.7898 4.08366 18.5833 3.97943 18.2736C3.5625 16.8798 3.14556 15.4861 2.72863 14.0923C2.25958 12.5954 1.84264 11.0467 1.37359 9.54976C0.852427 7.89791 0.435494 6.24606 0.0706773 4.59421C-0.137789 3.5618 0.122794 2.68426 0.748194 1.80671C1.68629 1.03241 2.52016 0.722684 3.5625 0.567823C4.29213 0.464583 4.86541 0.825925 5.33446 1.23889C7.15854 2.7875 8.25299 4.85231 8.98263 7.07198C9.29533 8.10439 9.39956 9.24003 9.71226 10.2724C10.2855 11.9759 10.494 13.731 11.2236 15.3828C11.2236 14.8666 11.5885 14.4537 11.2236 13.8859C10.9109 13.3697 10.8588 12.7502 10.8067 12.1308C10.7025 10.6338 10.3898 9.08517 10.4419 7.58818C10.494 5.93633 10.4419 4.23286 11.0673 2.63263C11.9012 0.361342 12.9956 0.0516203 15.0803 0C16.3311 0 17.3213 0.825925 18.2594 1.65185C19.3017 2.58101 19.8229 3.76828 20.3962 4.95555C20.6046 5.36851 20.8652 5.78147 20.9695 6.40092C21.4385 5.47175 21.647 4.64583 22.0639 3.87152C22.7935 2.42615 24.8261 1.29051 26.3896 1.85833C27.015 2.06481 27.5362 2.42615 28.1095 2.73588C28.4743 2.94236 28.4743 3.3037 28.6307 3.61342C29.4124 5.00717 30.0899 6.40092 30.6111 7.84629C30.9759 8.87869 30.8195 9.9111 30.8717 10.9435C30.8717 11.2532 30.9238 11.5113 31.028 11.821C31.5492 10.7886 32.1746 9.80786 32.5915 8.77545C32.9042 7.89791 33.4254 7.1236 33.8944 6.24606C34.2071 5.67823 34.4156 5.05879 34.7804 4.54259C35.5622 3.3037 36.396 2.11643 37.6989 1.29051C38.3765 0.877545 39.8357 1.13565 40.2527 1.70347C40.5654 2.11643 40.7738 2.52939 40.7217 3.0456C40.6175 3.76828 40.8259 4.43935 40.6175 5.16203C40.3569 6.40092 40.3048 7.74304 39.6794 8.87869C39.1061 9.9111 38.6892 10.9951 38.1159 12.0275C38.0638 12.1308 38.0116 12.1824 37.9595 12.2856C37.9074 12.5437 37.7511 12.8535 37.4905 12.7502C37.2299 12.647 37.3862 12.2856 37.4905 12.0791C38.0638 10.8403 38.6892 9.653 39.2103 8.41411C39.7836 7.02036 40.0442 5.57499 40.0442 4.078C40.0442 3.51018 40.3048 2.89074 39.8878 2.27129C39.6794 1.96157 39.4709 1.85833 39.1582 1.75509C38.0116 1.54861 37.282 2.11643 36.6045 2.89074C35.2495 4.49097 34.2071 6.29768 33.3733 8.20763C32.3309 10.5305 30.9759 12.7502 30.0378 15.1247C29.5166 16.4153 28.6828 17.5509 28.2137 18.8414C27.8489 19.9254 27.2756 20.9062 26.7545 21.9386C26.0769 23.2291 25.4515 24.5713 24.774 25.8618C24.7219 25.965 24.6176 26.1199 24.5134 26.2231C24.4092 26.2747 24.2528 26.378 24.0965 26.2231C23.9401 26.0682 24.0443 25.965 24.0965 25.8101C25.0346 24.0551 26.0248 22.2483 26.9108 20.4933C27.4841 19.306 28.0053 18.1187 28.5785 16.9315C28.787 16.5185 29.0997 16.0539 29.3082 15.5893C29.4124 15.1247 29.5688 14.7634 29.7772 14.3504C29.8815 14.1956 29.9857 14.0407 29.8815 13.7826C29.5166 12.8535 29.3603 11.8727 29.4645 10.8919C29.6209 9.75624 29.2039 8.82707 28.7349 7.89791C28.1095 6.76226 27.2756 5.78147 26.1812 5.00717C24.9825 4.12962 24.2528 4.28448 23.5753 5.47175C23.2105 6.14282 23.1584 6.96874 22.8457 7.6398C22.7935 7.79466 22.8457 7.89791 23.002 7.94953C23.7316 8.36249 23.9922 9.13679 24.2528 9.85948C24.357 10.1692 24.2528 10.6338 24.4092 10.8403C24.6176 11.0467 24.9825 10.737 25.2952 10.737C25.3994 10.737 25.5558 10.7886 25.66 10.7886C26.7545 10.7886 28.4222 12.0275 28.4743 13.1632C28.5785 14.0407 29.2039 14.7118 29.3082 15.5893ZM0.904544 4.28448C0.904544 5.31689 1.32148 6.45254 1.58206 7.58818C2.05111 9.49813 2.67651 11.3565 3.2498 13.2664C3.97943 15.6926 4.70906 18.0671 5.38658 20.4933C5.59504 21.3192 5.85563 22.0419 6.79373 22.1967C6.89796 22.1967 7.00219 22.3 7.10643 22.3516C7.47124 22.7129 7.94029 22.9194 8.40934 23.1259C8.87839 23.3324 9.39956 23.4872 9.86861 23.8486C10.8067 24.6229 11.849 25.1391 13.0477 25.4488C13.2041 25.5004 13.3083 25.5004 13.4125 25.3972C13.5168 25.3456 13.5168 25.2423 13.4647 25.0875C13.152 24.3648 13.0477 23.5905 12.8393 22.8162C12.0575 20.4416 11.38 18.0671 10.7025 15.6926C10.2855 14.0923 9.86861 12.4921 9.34744 10.8919C8.87839 9.39489 8.66993 7.84629 8.09664 6.40092C7.41913 4.74907 6.58526 3.20046 5.23023 1.90995C4.44848 1.13565 3.61461 0.877545 2.57228 1.34213C1.63418 1.85833 0.800311 3.09722 0.904544 4.28448ZM35.1452 32.1594C35.041 32.4175 34.8846 32.4175 34.7283 32.4692C33.9987 32.624 33.3211 32.7789 32.5915 32.8305C31.7576 32.9338 31.445 33.1402 31.445 33.7597C31.445 34.121 31.445 34.534 31.4971 34.8953C31.5492 35.7729 31.6534 36.702 31.7055 37.5796C31.7577 38.2506 31.6534 38.9217 31.7577 39.5411C31.914 40.5736 31.9661 41.606 31.914 42.6384C31.914 42.9997 32.0182 43.1029 32.383 43.0513C33.8944 42.9481 35.4058 42.6384 36.9172 42.3803C37.7511 42.2254 37.8032 42.0189 37.5426 41.2446C37.3862 40.8317 37.3341 40.3671 37.3862 39.9541C37.6468 37.4247 37.1778 34.8953 37.1257 32.3143C37.1257 32.1594 37.0735 32.0562 36.9172 32.0562C36.813 32.0562 36.6045 32.2627 36.5524 31.953C36.5003 31.6949 36.7087 31.6949 36.8651 31.6432C37.282 31.4368 37.0214 31.0238 37.0214 30.7657C37.0214 30.5592 37.0735 30.2495 36.7087 30.1979C36.2918 30.1463 36.396 29.8365 36.6045 29.6817C36.8651 29.5268 36.8651 29.3203 36.813 29.0622C36.7608 28.8557 36.813 28.6493 36.9172 28.4428C36.9693 28.2879 37.1257 28.1331 37.3341 28.2363C37.5426 28.2879 37.4384 28.4428 37.4384 28.5976C37.3341 29.2171 37.4905 29.4236 38.168 29.3203C38.6892 29.2171 39.2103 29.2687 39.7315 29.1138C39.8357 29.0622 39.9921 29.0106 40.0442 29.2171C40.0442 29.3203 39.94 29.4236 39.8357 29.4236C39.4188 29.5268 39.0019 29.6301 38.5328 29.7849C37.4905 30.043 37.4905 30.043 37.5426 31.127C37.5426 31.4368 37.6468 31.54 37.9074 31.4884C39.0019 31.2303 40.0963 31.0238 41.1908 30.8689C41.4513 30.8173 41.6077 30.7141 41.5556 30.4044C41.5035 29.3719 41.4513 28.3912 41.3992 27.3588C41.3992 27.049 41.2429 26.9458 40.9823 27.049C40.6696 27.1523 40.3048 27.3071 39.9921 27.3588C38.7413 27.5652 37.5947 28.0814 36.3439 28.1847C35.8749 28.2363 35.5622 28.3912 35.8227 28.9074C35.8749 28.959 35.8227 29.1138 35.8749 29.1655C36.0833 29.5268 35.5622 30.0946 36.2397 30.3527C36.2918 30.3527 36.2397 30.456 36.1354 30.5076C35.9791 30.5592 35.9791 30.6625 35.9791 30.8173C36.0312 31.3335 36.0312 31.8497 36.0833 32.3659C36.1876 33.3467 36.5003 34.3275 36.3439 35.3083C36.2918 35.6696 36.1354 36.2374 36.9172 36.1858C37.0214 36.1858 37.1778 36.1858 37.1778 36.3407C37.1778 36.4955 37.0214 36.4955 36.9172 36.4955C36.6566 36.5472 36.396 36.5472 36.4481 36.9601C36.6566 38.3539 36.2397 39.7992 36.813 41.1414C36.9172 41.3479 36.8651 41.606 36.6045 41.6576C36.2918 41.7092 36.2397 41.5027 36.2397 41.2962C36.1876 40.9349 36.0833 40.9349 35.7185 40.9349C34.8846 40.9865 34.1029 41.2962 33.3212 41.4511C33.1648 41.5027 32.9042 41.7092 32.8 41.3995C32.6958 41.0898 33.0084 41.0381 33.2169 40.9349C33.9987 40.7284 34.7804 40.4703 35.6143 40.5736C35.8749 40.5736 35.9791 40.5736 36.0312 40.2638C36.0833 39.283 36.0833 38.3023 36.0312 37.3215C35.9791 36.5988 35.8749 36.5472 35.1452 36.7537L35.0931 36.8053C34.3114 36.9085 33.5817 37.2699 32.8 37.528C32.6436 37.5796 32.3309 37.6828 32.2267 37.4247C32.1225 37.115 32.4352 37.115 32.5915 37.0634C33.4775 36.8569 34.4156 36.6504 35.3537 36.3923C35.5622 36.3407 35.8749 36.3407 35.927 36.0826C36.0312 35.6696 36.0312 35.2567 35.9791 34.8437C35.9791 34.6888 35.927 34.6372 35.7185 34.6372C34.7804 34.7405 33.8423 34.7921 32.9042 35.1018C32.6436 35.205 32.3309 35.3083 32.0704 35.2567C31.9661 35.205 31.7577 35.2567 31.7577 35.1018C31.7055 34.8953 31.914 34.8953 32.0704 34.8437C33.3211 34.4824 34.6241 34.3275 35.9791 34.3791C35.9791 34.2243 35.9791 34.0178 35.927 33.8629C35.7706 32.9338 35.6143 32.0046 35.5622 31.0754C35.51 30.5076 35.51 29.9398 35.4058 29.3203C35.3537 29.0106 35.3537 28.5976 35.1452 28.3912C34.9889 28.1847 34.6762 28.4944 34.4156 28.4944C34.3635 28.4944 34.2592 28.4944 34.2071 28.4944C33.3733 28.546 32.5915 28.5976 31.7577 28.5976C31.5492 28.5976 31.2886 28.5976 31.3407 28.8557C31.3928 29.4236 31.1844 29.9398 31.1844 30.5076C31.3928 30.4044 34.6762 30.5076 34.8847 30.5592C34.8325 30.6625 34.6762 30.6625 34.5719 30.6625C33.5296 30.6625 32.5394 30.8173 31.4971 30.7657C31.3407 30.7657 31.2365 30.6625 31.1844 30.9206C31.028 32.3143 31.445 32.6756 32.8 32.3659C32.8521 32.3659 32.9042 32.3143 32.9563 32.3143C33.7381 32.3659 34.4156 32.2627 35.1452 32.1594ZM15.3409 37.3215C15.0803 37.4247 14.9239 37.4763 14.7676 37.4247C13.9337 37.3731 13.0998 37.3215 12.2139 37.3215C11.849 37.3215 11.6927 37.3731 11.7448 37.7861C11.849 38.612 11.9533 39.3863 12.0575 40.2122C12.1096 40.4703 12.1096 40.6768 11.9533 40.8833C11.9012 40.9349 11.7969 40.9349 11.7448 40.8833C11.5363 40.7284 11.4842 40.4703 11.4842 40.2638C11.4842 40.2122 11.5363 40.1606 11.4842 40.109C11.38 39.5928 11.4842 39.1282 11.38 38.612C11.2236 37.9925 11.1194 37.3215 11.1715 36.7537C11.1715 35.9793 11.2236 35.1534 11.2236 34.3791C11.1715 33.037 10.8588 31.6949 10.8067 30.3527C10.8067 29.5268 10.7025 28.6493 10.9631 27.8233C11.1194 27.3588 11.0152 27.2555 10.5982 27.2555C10.5461 27.2555 10.4419 27.2039 10.3898 27.2039C9.29533 26.6361 8.09664 26.2747 6.95008 25.7585C6.84584 25.7069 6.68949 25.6553 6.58526 25.8101C6.42891 26.0166 6.42891 27.3071 6.58526 27.5136C7.15854 28.4428 8.04453 28.7009 9.03474 28.8041C9.34744 28.8557 9.39956 28.7525 9.34744 28.4428C9.29533 28.1847 9.24321 27.9266 9.34744 27.6685C9.39956 27.5136 9.45168 27.3588 9.60803 27.3588C9.76438 27.3588 9.86861 27.5652 9.81649 27.7201C9.76438 28.4944 9.97284 29.2687 10.025 30.043C10.1292 31.4368 10.2855 32.7789 10.3898 34.1726C10.3898 34.3791 10.8067 34.4307 10.5461 34.6888C10.3377 34.9469 10.4419 35.205 10.494 35.4631C10.5982 36.031 10.7546 36.5988 10.7546 37.1666C10.7546 37.8377 10.8067 38.5087 11.0152 39.1282C11.0673 39.3347 11.0673 39.5411 11.0673 39.7476C11.0673 39.8509 11.0152 39.9541 10.8588 40.0057C10.7025 40.0574 10.5461 39.9541 10.5461 39.8509C10.494 39.0766 9.92073 39.1798 9.39956 39.1282C9.08686 39.0766 8.77416 39.0249 8.46146 39.0249C8.20088 39.0249 7.99241 38.8701 7.78394 38.7668C7.62759 38.6636 7.57548 38.5604 7.62759 38.4055C7.73183 38.2506 7.88818 38.1474 8.04453 38.2506C8.51358 38.612 9.13898 38.612 9.71226 38.7152C10.3898 38.8185 10.3377 38.8701 10.2855 38.1474C10.2855 37.8893 10.3377 37.5796 10.2334 37.3215C10.0771 36.9601 9.71226 37.2699 9.45168 37.1666C8.87839 36.9601 8.30511 36.9085 7.73183 36.7537C7.52336 36.702 7.36701 36.6504 7.21066 36.8053C7.05431 36.9085 7.10643 37.115 7.21066 37.2182C7.41913 37.528 7.41913 37.7861 7.21066 38.0442C7.10643 38.1474 7.15854 38.2506 7.21066 38.3539C7.47124 38.8701 7.99241 39.283 8.40934 39.5411C8.93051 39.8509 9.39956 40.3155 9.97284 40.6252C10.9109 41.1414 11.849 41.5027 12.9956 41.2446C13.8295 41.0898 14.6112 41.2962 15.4451 41.4511C15.5493 41.4511 15.7057 41.5543 15.6536 41.6576C15.6536 41.8124 15.4972 41.7608 15.393 41.7608C15.1324 41.7608 14.9239 41.7608 14.6633 41.8124C15.2366 41.9157 15.7057 42.3803 16.4353 42.3286C16.2268 41.9157 16.2268 41.5543 16.2268 41.193C16.1747 39.3347 16.0184 37.4247 15.9141 35.5664C15.9141 35.1018 15.6014 34.9986 15.2887 35.0502C14.8718 35.205 14.4028 35.205 14.0379 35.1534C13.4125 35.1018 12.7871 35.205 12.2139 34.7921C12.1096 34.6888 12.0054 34.5856 12.1096 34.4824C12.2139 34.3791 12.266 34.2759 12.4223 34.3791C13.2041 34.7921 14.0379 34.8437 14.9239 34.8437C15.862 34.8437 15.9663 34.7405 15.8099 33.8629C15.5493 32.2111 15.5493 30.4044 15.5493 28.7009C15.5493 28.2363 15.3409 28.0814 15.0282 28.0814C13.9337 28.0814 12.8914 27.5652 11.7969 27.6169C11.6406 27.6169 11.38 27.462 11.4321 27.7717C11.4842 28.1331 11.3279 28.4428 11.2758 28.7525C11.2758 29.0106 11.2758 29.2171 11.5363 29.3203C12.1096 29.6817 12.7871 29.7849 13.3604 30.043C13.7252 30.1979 14.1943 30.2495 14.507 30.5592C14.4028 30.6625 14.2985 30.6625 14.1943 30.6625C13.3604 30.5076 12.5787 30.2495 11.7969 29.9398C11.2758 29.7333 11.2236 29.7849 11.2758 30.3011C11.2758 30.6108 11.3279 30.8689 11.3279 31.1787C11.3279 31.4884 11.4321 31.5916 11.7448 31.5916C12.3181 31.5916 12.8914 31.7465 13.4125 31.9013C13.5689 31.953 13.7774 32.0562 13.7252 32.2111C13.6731 32.4175 13.4647 32.3143 13.3083 32.2627C12.7871 32.1078 12.266 32.0562 11.6927 32.1078C11.38 32.1078 11.3279 32.2627 11.38 32.5208C11.6406 33.7081 11.6927 34.8953 11.6406 36.1342C11.6406 36.6504 11.7969 36.8569 12.266 36.9085C12.6829 36.9601 13.152 36.9601 13.5689 37.0634C14.1422 37.1666 14.7155 37.0634 15.3409 37.3215ZM23.4711 36.9085C23.3668 36.0826 23.4711 35.205 23.2626 34.3791C23.2105 34.0694 23.2626 33.6564 23.0541 33.5016C22.8978 33.3467 22.4287 33.45 22.1681 33.3983C20.7089 33.1402 19.2496 33.0886 17.7903 33.1919C17.4776 33.1919 17.3213 33.2435 17.3213 33.6048C17.3213 34.5856 17.3734 35.5664 17.5298 36.4955C17.634 37.4247 17.634 37.4247 18.5721 37.3215C18.7284 37.3215 18.8848 37.3215 19.0411 37.3215C20.1877 37.4247 21.3864 37.528 22.533 37.6312C22.6372 37.6312 22.7414 37.6828 22.7414 37.7861C22.7414 37.8893 22.6372 37.9409 22.533 37.9409C22.2724 37.9409 22.0118 37.9409 21.7512 37.9409C20.5004 37.8893 19.2496 37.6828 17.9988 37.9925C17.6861 38.0958 17.5819 38.1474 17.634 38.4571C17.6861 38.8701 17.6861 39.283 17.7903 39.6444C17.9988 40.109 17.9988 40.6252 17.9467 41.0898C17.8946 41.4511 17.8946 41.8124 17.9467 42.1222C17.9988 42.5867 18.2073 42.9481 18.7806 43.0513C20.0314 43.2578 21.3343 43.3094 22.5851 43.4127C23.3147 43.4643 24.0443 43.5675 24.774 43.6192C24.9304 43.6192 25.191 43.774 25.191 43.4127C25.1388 42.1738 25.1388 40.9349 25.0867 39.696C25.0346 38.5087 24.8261 37.3215 24.8261 36.0826C24.8261 35.1534 25.0346 34.121 24.2528 33.2951C24.2528 33.2951 24.2528 33.1918 24.3049 33.1402C24.7219 32.8821 24.5134 32.4692 24.5134 32.1594C24.5134 31.3335 24.357 30.5592 24.5134 29.7333C24.6176 29.1655 24.5134 29.0106 23.888 29.1138C23.6795 29.1655 23.4189 29.0622 23.4711 29.4752C23.5232 29.7849 23.5232 30.0946 23.5753 30.4044C23.6274 30.6108 23.5753 30.8689 23.9401 30.7657C24.0965 30.7141 24.2528 30.8689 24.2007 31.0238C24.2007 31.1787 24.0443 31.2303 23.888 31.1787C23.7316 31.127 23.5232 31.0754 23.5753 31.3335C23.6795 31.9013 23.5232 32.4692 23.5753 32.9854C23.8359 34.7405 23.9401 36.5472 24.0965 38.3023C24.2007 39.3347 23.9401 40.3155 24.2528 41.3479C24.4092 41.8124 24.1486 42.3286 24.357 42.7932C24.4613 43.0513 24.3049 43.3094 24.0443 43.361C23.6795 43.4127 23.7838 43.0513 23.7838 42.8448C23.7316 42.0705 23.7838 41.3479 23.6795 40.5736C23.4711 39.3347 23.6795 38.1474 23.4711 36.9085ZM11.6927 14.2472C11.9012 13.5245 12.3702 13.318 12.8914 13.1632C13.0998 13.1116 13.0477 13.0083 12.9956 12.8018C12.4223 11.4597 12.8393 10.1692 13.4647 8.93031C13.6731 8.51735 14.1422 8.15601 14.5591 7.84629C15.0282 7.48494 15.4972 7.02036 16.1226 7.22684C16.5917 7.33008 17.0607 7.27846 17.5298 7.27846C17.8946 7.27846 18.3115 7.22684 18.6763 7.43332C18.9369 7.58818 19.2496 7.6398 19.5102 7.33008C19.7187 7.1236 20.0314 7.07198 20.3441 7.02036C20.5004 6.96874 20.6568 7.1236 20.7089 7.22684C20.7089 7.33008 20.6568 7.43332 20.5004 7.48494C19.6144 7.74304 18.989 8.36249 18.4157 9.03355C18.103 9.39489 17.9988 9.75624 18.3636 10.1692C18.52 10.3241 18.5721 10.5822 18.5721 10.7886C18.5721 11.2532 18.6242 11.6662 18.6242 12.1308C18.6242 12.5954 18.989 12.8018 19.2496 13.0599C19.5102 13.2664 19.8229 13.0083 19.9271 12.6986C20.0314 12.2856 19.9271 11.9243 19.9792 11.5113C20.1877 10.1692 20.5004 8.87869 20.8131 7.53656C20.8652 7.33008 21.0216 7.07198 20.8652 6.8655C20.2398 5.98795 19.875 5.00717 19.3538 4.12962C18.6242 2.83912 17.7903 1.75509 16.4874 1.03241C15.7057 0.619444 14.8718 0.412962 13.9858 0.722684C13.8295 0.774304 13.621 0.825925 13.4647 0.825925C12.8914 0.825925 12.5266 1.18727 12.266 1.60023C11.5363 2.68426 11.1715 3.97476 11.1194 5.26527C11.0152 6.96874 10.9631 8.67221 11.2236 10.3757C11.2758 11.6146 11.4321 12.8535 11.6927 14.2472ZM25.7121 38.3539C25.9206 38.0958 26.1291 37.9925 26.3896 37.9925C27.3799 37.9925 28.4222 37.8377 29.4124 37.8377C29.8293 37.8377 29.8815 37.6312 29.8815 37.3731C29.8815 36.8569 29.8815 36.3407 29.8815 35.8245C29.7772 34.3275 29.5166 32.8305 29.5166 31.3335C29.5166 30.9722 29.3603 30.8173 28.9955 30.8689C28.4222 30.9722 27.8489 31.0754 27.2756 30.9722C26.7023 30.8173 26.1291 30.9206 25.6079 30.9722C24.9304 31.0238 24.8783 31.1787 24.8261 31.8497C24.8261 32.0046 24.8783 32.1078 24.8783 32.2111C24.774 32.6756 25.0346 32.7789 25.3994 32.7789C26.3375 32.8305 27.2756 32.8821 28.2137 32.9338C28.318 32.9338 28.5264 32.8821 28.5264 33.0886C28.5264 33.2435 28.3701 33.1919 28.2658 33.1919C27.432 33.1919 26.6502 33.1918 25.8164 33.1402C25.191 33.1402 25.0346 33.2435 25.0867 33.8113C25.0867 34.2759 25.191 34.7405 25.191 35.1534C25.191 35.4631 25.3473 35.5148 25.6079 35.5148C26.2854 35.4631 26.9108 35.4115 27.5883 35.4115C28.1095 35.4115 28.6307 35.3599 29.1518 35.5664C28.9955 35.618 28.8391 35.6696 28.6828 35.6696C27.7447 35.7729 26.8066 35.8245 25.8685 35.9277C25.5558 35.9793 25.191 35.9793 25.191 36.4439C25.191 36.8053 24.9825 37.3215 25.7121 37.3215C25.8164 37.3215 25.9206 37.3731 25.9206 37.4763C25.9206 37.5796 25.8164 37.5796 25.7121 37.6312C25.5037 37.6828 25.2431 37.6828 25.3473 38.0442C25.5558 39.1282 25.5037 40.2638 25.5558 41.3479C25.6079 41.8124 25.8164 41.9157 26.1812 41.8641C27.1193 41.7608 28.1095 41.7608 29.0997 41.7608C29.3082 41.7608 29.5166 41.7092 29.673 41.9157C29.4645 42.1222 29.2039 42.1222 28.9434 42.0705C27.9531 42.0705 27.015 42.1222 26.0248 42.2254C25.66 42.277 25.5558 42.4835 25.66 42.7416C25.7642 42.9997 25.5558 43.5159 26.1291 43.5159C27.2756 43.4643 28.3701 43.4127 29.5166 43.3094C29.9336 43.2578 30.2463 43.1029 30.142 42.5867C29.9857 41.7608 29.9857 40.9349 30.0378 40.0574C30.0899 39.5928 30.142 39.1282 30.0899 38.6636C30.0378 38.199 29.8293 37.9925 29.3082 38.0958C28.4222 38.2506 27.5362 38.3023 26.6502 38.3539C26.3375 38.5087 26.0248 38.612 25.7121 38.3539ZM44.9953 34.6888C45.4122 33.9145 45.5686 33.2435 45.6728 32.5724C45.7249 32.1594 45.5686 32.0562 45.1516 32.2111C44.8389 32.3659 44.5783 32.4692 44.3178 32.6756C44.1614 32.7789 43.9529 32.7789 43.8487 32.6756C43.7445 32.4692 43.9008 32.3659 44.0572 32.2627C44.4741 32.0046 44.9432 31.7465 45.4122 31.6949C45.6728 31.6432 45.8291 31.54 45.8813 31.2303C46.2982 29.3203 46.5588 27.3588 46.7672 25.3972C46.8194 25.1391 46.7151 25.0358 46.4024 25.1907C45.9855 25.3972 45.6207 25.7069 45.1516 25.8618C44.4741 26.1199 43.7445 26.3264 43.0148 26.5328C42.7543 26.5845 42.65 26.7393 42.65 27.049C42.65 27.2555 42.7021 27.462 42.7021 27.6685C42.7021 27.9266 42.7021 28.0298 43.067 27.9266C43.9529 27.6685 44.8389 27.5136 45.7249 27.3071C45.8291 27.2555 45.9855 27.2039 46.0376 27.3588C46.0897 27.5136 45.9334 27.5652 45.8813 27.5652C44.9953 27.7201 44.2656 28.2363 43.3797 28.3912C42.9627 28.4428 42.7021 28.6493 42.7021 29.2171C42.65 30.8689 42.65 32.4692 42.8585 34.0694C42.9627 34.8437 42.9627 34.8437 43.5881 34.534C43.7966 34.4307 44.0051 34.3791 44.2135 34.2759C44.6826 34.0178 44.891 34.0694 44.9953 34.6888ZM22.3766 31.127C22.6372 30.9206 22.9499 31.0238 22.9499 30.7657C22.8978 30.2495 22.7935 29.7333 22.8978 29.2171C22.8978 29.1138 22.7414 29.1138 22.6372 29.0622C22.2203 28.9074 21.7512 29.0622 21.2822 29.0106C20.0835 28.8041 18.8327 29.0106 17.634 28.5976C17.4255 28.546 17.2171 28.546 17.2692 28.9074C17.3213 29.2687 17.3213 29.6301 17.3213 30.043C17.3213 30.3011 17.3734 30.5076 17.6861 30.6108C18.3115 30.8689 18.9369 30.8173 19.5102 30.9206C19.9792 30.9722 20.5004 30.9206 21.0216 31.2303C20.1877 31.4368 19.4581 31.2303 18.7284 31.2819C18.2594 31.2819 17.634 30.8173 17.3213 31.1787C17.1128 31.4884 17.3213 32.1594 17.3213 32.624C17.3213 32.6756 17.3213 32.6756 17.3734 32.7273C17.8946 32.5724 18.4157 32.6756 18.9369 32.7273C19.875 32.8305 20.761 33.1402 21.6991 33.0886C22.9499 33.0886 23.1584 33.45 23.0541 31.8497C23.0541 31.4368 23.0541 31.0754 22.3766 31.127ZM16.9565 16.7766C16.8522 15.4861 16.5395 14.7118 15.7578 14.0923C15.2887 13.731 14.7676 13.8859 14.2985 13.6794C13.0998 13.1632 11.9012 14.0923 11.7969 15.3312C11.6927 16.2088 11.9012 17.0347 12.3181 17.809C12.5266 18.1703 12.8393 18.3768 13.0998 18.6865C13.5168 19.2028 13.8295 18.7382 14.1422 18.6865C14.507 18.6865 14.8718 18.4801 15.2887 18.5833C15.4972 18.6349 15.8099 18.6349 16.0184 18.4284C16.5395 17.8606 17.0607 17.2928 16.9565 16.7766ZM17.5298 10.8919C17.3734 9.653 17.3734 9.60138 16.8001 9.13679C15.5493 8.05277 14.2464 8.25925 13.5168 9.75624C13.2041 10.4789 13.0998 11.3048 13.2562 12.0791C13.3604 12.5437 13.4647 13.1116 14.2464 13.1632C14.9239 13.2148 15.6536 13.2664 16.1747 13.8859C16.2268 13.9891 16.4353 14.0407 16.5917 13.8342C16.748 13.6794 16.9565 13.5761 17.1128 13.3697C17.4255 12.9567 17.9467 12.647 17.7382 12.0791C17.634 11.6662 17.4776 11.2532 17.5298 10.8919ZM25.2952 16.312C25.3994 15.8991 25.5037 15.5377 25.6079 15.228C25.7121 14.8666 25.8685 14.5053 25.2952 14.3504C25.1388 14.2988 25.0346 14.144 25.1388 13.9891C25.191 13.8342 25.3994 13.7826 25.5558 13.9375C25.8164 14.1956 25.9206 13.9891 25.9727 13.731C26.0248 13.5245 26.0248 13.318 26.0769 13.1116C26.1291 12.9567 26.1812 12.6986 26.4418 12.7502C26.7545 12.8535 26.4939 13.0599 26.4418 13.1632C26.3375 13.5245 26.1812 13.8342 26.1812 14.144C26.1812 14.4537 26.5981 14.3504 26.8066 14.4537C26.9108 14.5053 26.9629 14.6085 26.9629 14.6602C26.9108 14.7634 26.8066 14.7634 26.7023 14.7118C26.1291 14.4021 25.9206 14.6602 25.8164 15.228C25.8164 15.4345 25.7121 15.5893 25.66 15.7442C25.5558 16.1572 25.2952 16.4669 26.1291 16.3636C27.1193 16.2088 27.9531 15.5893 28.0574 14.6085C28.1095 14.1956 28.1095 13.8342 28.0053 13.4213C27.8489 12.7502 27.5362 12.234 27.0672 11.7178C26.0769 10.737 24.4613 11.0467 24.0965 12.2856C24.0443 12.4921 23.6795 12.647 23.8359 12.8535C24.0965 13.1632 23.888 13.318 23.8359 13.5245C23.7316 13.7826 23.6795 14.0407 23.6795 14.3504C23.6795 15.5377 24.5134 15.8991 25.2952 16.312ZM14.0379 23.7453C14.1422 24.2615 14.1422 24.7261 14.2985 25.0875C14.4028 25.3972 14.5591 25.8101 14.9239 25.965C15.4451 26.1715 16.0705 26.2231 16.6438 26.378C16.9565 26.4296 16.9565 26.2747 16.9044 26.0682C16.8001 25.6553 16.6438 25.2423 16.5917 24.8294C16.0705 22.6097 16.5917 21.474 18.2073 20.1319C18.3636 19.9771 18.5721 19.8738 18.7806 19.9771C18.989 20.1319 19.0411 20.0803 19.0933 19.8738C19.1454 19.6157 19.1454 19.4092 19.1454 19.1511C19.1454 18.9446 19.0933 18.7382 18.8848 18.8414C18.2594 19.0995 17.5819 19.0995 17.0086 19.5641C16.2268 20.1835 15.6536 20.9062 14.976 21.6289C14.2985 22.3516 14.4028 23.1775 14.0379 23.7453ZM9.19109 31.4884C9.08686 31.6432 8.98263 31.5916 8.87839 31.5916C8.25299 31.5916 7.73183 31.3335 7.21066 31.127C6.68949 30.9206 6.58526 30.9722 6.63738 31.4884C6.63738 32.0046 6.74161 32.5208 6.79373 33.037C6.84584 33.3467 6.95008 33.5016 7.26278 33.5532C8.04453 33.8113 8.87839 33.8113 9.66014 34.1726C10.025 34.3275 10.0771 34.1726 10.0771 33.8629C10.0771 32.624 9.81649 31.3851 9.76438 30.1979C9.76438 29.9398 9.60803 29.6817 9.60803 29.372C9.60803 29.1138 9.45168 29.1138 9.29533 29.1138C8.66993 29.0106 8.04453 29.0622 7.47124 28.8041C7.15854 28.6493 6.95008 28.3395 6.53314 28.2879C6.53314 28.5976 6.58526 28.9074 6.58526 29.2687C6.63738 29.7849 6.32468 30.456 7.26278 30.5076C7.36701 30.5076 7.41913 30.6108 7.47124 30.6625C7.78394 30.9722 8.25299 31.127 8.66993 31.2303C8.77416 31.2819 9.03474 31.2819 9.19109 31.4884ZM42.181 26.8942C42.1289 26.8942 42.0767 26.8942 42.0246 26.8942C41.9725 27.1007 41.9204 27.3071 41.9204 27.462C41.9725 28.959 42.1289 30.456 42.1289 31.953C42.0767 33.2435 42.4416 34.4824 42.2852 35.7729C42.1289 36.7537 42.1289 37.7344 42.3894 38.7152C42.4937 39.1282 42.2852 39.283 41.8162 39.1798C41.7119 39.1282 41.6598 39.2314 41.5556 39.283C40.5654 39.5928 39.6273 40.0057 38.6892 40.4187C37.9074 40.78 37.9074 40.7284 38.1159 41.5543C38.168 41.8641 38.2722 41.8641 38.5328 41.7608C39.4709 41.3995 40.4611 40.9865 41.3992 40.6768C42.0767 40.4187 42.7543 40.2122 43.2754 39.7476C44.1093 38.9733 44.1093 37.8377 44.1614 36.7537C44.1614 36.702 44.1614 36.5988 44.0572 36.5988C43.7966 36.4955 43.0148 36.9085 42.9106 37.1666C42.8585 37.3731 42.9106 37.528 42.8585 37.7344C42.8585 37.9409 42.8064 38.2506 42.5458 38.2506C42.2331 38.2506 42.2852 37.9409 42.3373 37.7344C42.3373 37.6828 42.3894 37.5796 42.3894 37.528C42.4937 36.2891 42.65 35.1018 42.4416 33.8629C42.2331 32.5208 42.2852 31.127 42.2331 29.7333C42.3373 28.8041 42.4937 27.8233 42.181 26.8942ZM30.8195 31.3335C30.8717 30.456 30.7674 29.8882 30.8195 29.3203C30.8195 29.1655 30.8717 28.8557 30.5068 28.8557C30.1941 28.8557 30.0378 29.0106 30.0378 29.3203C30.0378 30.0946 29.9857 30.8689 30.0378 31.6432C30.0899 32.7273 30.142 33.8113 30.2984 34.8953C30.5068 35.9793 30.2463 37.115 30.4547 38.2506C30.7153 39.7476 30.4026 41.2962 30.7153 42.7932C30.7674 42.9997 30.6111 43.3094 31.0801 43.2578C31.3928 43.2062 31.5492 43.1029 31.5492 42.7932C31.5492 41.0381 31.2886 39.283 31.3407 37.528C31.3928 36.5472 31.0801 35.5664 31.1323 34.534C31.1844 34.0178 31.3928 33.45 30.8717 33.037C30.8195 33.037 30.8195 32.9338 30.8717 32.8821C31.0801 32.2627 30.7674 31.6949 30.8195 31.3335ZM16.3832 19.2544C17.2171 18.8414 17.9467 18.3252 18.8848 18.3252C19.1454 18.3252 19.2496 18.1703 19.2496 17.9122C19.2496 17.4993 19.3017 17.0863 19.3538 16.725C19.5102 15.7958 19.6144 14.8666 19.6144 13.9375C19.6144 13.7826 19.6144 13.6278 19.4581 13.6278C18.989 13.6278 18.6763 13.318 18.3636 13.0599C18.2594 13.0083 18.2073 12.8535 18.0509 13.0083C17.6861 13.4729 17.2692 13.9375 16.8522 14.3504C17.2692 14.2988 17.634 13.9891 18.0509 13.9375C18.4679 13.8859 18.8327 13.6794 19.3017 13.9375C18.6242 14.1956 17.9467 14.1956 17.3734 14.6602C17.9467 14.7118 18.4679 14.4537 19.0933 14.4537C18.6242 14.9183 18.103 14.9699 17.634 15.1764C17.3213 15.3312 17.3213 15.4345 17.3734 15.7442C17.4776 16.6217 17.5298 17.5509 16.748 18.222C16.4874 18.5317 16.3311 18.8414 16.3832 19.2544ZM41.7119 31.953C41.7119 31.6432 41.764 31.2819 41.6077 31.0754C41.3992 30.8689 41.0865 31.1787 40.8259 31.2303C39.8357 31.3851 38.8455 31.5916 37.8553 31.953C37.6468 32.0046 37.5426 32.1078 37.5426 32.2627C37.5426 32.624 37.5426 32.9854 37.5947 33.3467C37.5947 33.5532 37.6989 33.6564 38.0116 33.6048C38.9497 33.3983 39.8878 33.2435 40.8259 33.037C41.7119 32.8821 41.7119 32.8821 41.6598 31.953C41.7119 32.0046 41.7119 31.953 41.7119 31.953ZM5.43869 33.2951C5.69928 32.9338 5.64716 32.6756 5.54293 32.4175C5.33446 31.5916 5.17811 30.7657 5.17811 29.8882C5.17811 28.4428 4.96964 26.9974 4.91753 25.552C4.91753 25.2423 4.86541 24.9842 5.07388 24.7777C5.17811 24.6745 5.33446 24.5713 5.12599 24.468C4.60483 24.2099 4.1879 23.8486 3.61461 23.5905C3.8752 26.9458 4.76118 30.043 5.43869 33.2951ZM26.1812 29.0106C24.9825 29.0622 24.9825 29.0622 24.9304 29.9914C24.9304 30.5592 25.0346 30.6108 25.6079 30.6108C26.546 30.6625 27.4841 30.3527 28.4743 30.5076C29.3603 30.6108 29.3603 30.5592 29.4124 29.6817C29.4124 29.5268 29.4645 29.3719 29.4645 29.2687C29.4645 29.0622 29.4124 28.9074 29.1518 28.959C28.0574 29.1138 26.9629 29.2171 26.1812 29.0106ZM7.15854 36.031C8.25299 36.1858 9.24321 36.702 10.2855 36.9601C10.2855 36.2374 10.1813 35.5148 10.0771 34.7921C10.025 34.6372 9.97284 34.5856 9.81649 34.534C9.03474 34.3791 8.25299 34.1726 7.47124 34.121C7.10643 34.121 6.84584 34.2243 6.89796 34.6888C6.89796 35.205 7.21066 35.618 7.15854 36.031ZM38.0638 40.1606C39.0019 39.7476 39.94 39.3863 40.8781 39.0766C41.1908 38.9733 41.6598 39.2314 41.8162 38.8701C41.9204 38.5604 41.764 38.199 41.7119 37.8377C41.7119 37.7861 41.6598 37.6828 41.7119 37.6312C41.764 37.3215 41.5556 37.3215 41.3471 37.3215C40.7217 37.4247 40.0963 37.5796 39.523 37.7861C37.9595 38.4571 37.9074 38.5087 38.0116 39.9541C38.0116 40.0573 38.0116 40.109 38.0638 40.1606ZM37.7511 34.7921C37.7511 34.8953 37.6989 34.9986 37.6989 35.0502C37.8032 35.4115 37.7511 35.8245 38.4286 35.618C39.4188 35.3083 40.4611 35.1534 41.5035 34.9986C41.764 34.9469 41.764 34.7921 41.764 34.6372C41.764 34.2759 41.7119 33.9145 41.7119 33.5532C41.7119 33.45 41.6598 33.2951 41.4513 33.3467C40.3569 33.6048 39.2624 33.7597 38.2201 34.121C37.8553 34.2243 37.5426 34.3275 37.7511 34.7921ZM38.0116 37.8893C39.1582 37.4247 40.3048 37.115 41.5035 37.0118C41.6598 37.0118 41.764 36.9085 41.764 36.8053C41.8162 36.5472 41.8162 36.2891 41.8683 36.031C41.9204 35.205 41.8162 35.1018 41.0344 35.3599C40.0963 35.618 39.1061 35.9793 38.168 36.2374C37.9074 36.3407 37.8553 36.5472 37.9074 36.702C37.9595 37.115 37.9074 37.528 38.0116 37.8893ZM13.5689 23.5905C13.6731 23.1259 13.7252 22.7645 13.8295 22.4032C14.1422 21.4224 14.8197 20.6997 15.5493 19.9771C15.7578 19.7706 15.7578 19.719 15.6014 19.4609C15.3409 18.893 14.8718 19.0479 14.507 19.1511C13.3604 19.3576 12.8914 19.719 12.8914 20.7514C12.9435 21.6805 13.0998 22.6097 13.5689 23.5905ZM47.8617 21.7838C47.8096 22.2483 47.549 22.5064 47.2363 22.7646C47.0278 22.9194 46.8715 23.0743 46.8194 23.3324C46.7672 23.6421 46.663 23.6937 46.2982 23.6421C45.9334 23.5905 45.4643 23.6937 45.4643 24.1067C45.4643 24.5713 45.2037 24.7777 44.891 24.9842C44.7347 25.0875 44.5783 25.2423 44.3699 25.1391C44.1093 24.9842 44.2656 24.7777 44.3178 24.4164C43.6402 24.9842 42.9106 25.1391 42.4416 25.7585C42.2331 26.0166 42.0246 26.3264 41.8683 25.7069C41.8162 25.552 41.7119 25.4488 41.6077 25.552C41.2429 25.9134 40.6696 26.0683 40.409 26.6877C40.9823 26.5328 41.5035 26.378 42.0246 26.2747C44.0572 25.8101 45.9855 25.0875 47.549 23.6937C48.1744 23.0227 48.2786 22.5581 47.8617 21.7838ZM22.2203 12.7502C22.3245 12.9051 22.116 13.2148 22.3766 13.318C22.6372 13.4213 22.7935 13.1632 23.002 13.0599C23.2626 12.9051 23.4189 12.5954 23.5753 12.3373C23.9922 11.5629 23.8359 10.737 23.6795 9.9111C23.6274 9.49813 23.5232 9.13679 23.2105 8.82707C23.1062 8.72383 23.0541 8.51735 22.7935 8.62059C22.5851 8.67221 22.6372 8.87869 22.6372 8.98193C22.533 9.34327 22.6372 9.653 22.5851 10.0143C22.4287 10.8919 22.2203 11.7694 22.2203 12.7502ZM17.1649 28.4944C16.9044 28.4428 16.748 28.4428 16.5395 28.3912C16.1747 28.2879 15.9663 28.3395 16.0184 28.8041C16.0705 29.3719 16.0184 29.8882 16.0184 30.456C16.0705 31.7981 16.1747 33.1402 16.2268 34.4307C16.2268 34.7405 16.4353 34.8437 16.6959 34.8437C17.0086 34.8437 16.9044 34.5856 16.9044 34.4307C16.9044 32.9338 16.9044 31.3851 16.8001 29.8882C16.748 29.4752 16.6438 28.9074 17.1649 28.4944ZM17.0607 36.5988C17.0086 36.1342 16.9044 35.7729 16.9044 35.3599C16.9044 35.1018 16.8001 35.1018 16.5917 35.1534C16.3832 35.1534 16.3311 35.2567 16.3311 35.4631C16.5395 37.3731 16.5917 39.3347 16.748 41.2446C16.8001 41.6576 16.9565 42.0705 17.0607 42.4835C17.1128 42.5867 17.1649 42.69 17.3213 42.6384C17.3734 42.6384 17.4255 42.5867 17.4255 42.5351C17.3213 41.8124 17.5819 41.0381 17.4255 40.3155C17.1649 39.0766 17.0607 37.8377 17.0607 36.5988ZM38.0638 16.9831C38.2722 16.0023 38.3765 15.228 37.6468 14.5569C37.5947 14.5569 37.5947 14.5053 37.5947 14.4537C37.4905 14.2988 37.5426 14.1956 37.6468 14.144C37.7511 14.0407 37.9074 14.0923 37.9595 14.1956C38.0638 14.4021 38.2201 14.4021 38.3765 14.3504C38.637 14.2472 38.7413 14.4537 38.6892 14.6602C38.5849 15.3828 38.7413 16.0539 38.6892 16.7766C38.637 17.2928 38.3243 17.809 38.5328 18.4284C39.523 16.725 39.5751 15.0215 38.6892 13.3697C38.637 13.318 38.637 13.1632 38.5328 13.2148C38.3765 13.2148 37.2299 14.4021 37.2299 14.5569C37.2299 14.6085 37.2299 14.6602 37.2299 14.6602C37.7511 15.2796 37.8553 16.0539 38.0638 16.9831ZM20.7089 10.6338C20.0835 11.7178 20.6568 12.8535 20.761 13.9375C20.8131 14.2472 20.9173 14.5053 21.0216 14.7634C21.0737 14.8666 21.1779 15.0731 21.3343 15.0215C21.4906 14.9699 21.5427 14.815 21.4906 14.6602C21.4385 14.1956 21.5427 13.7826 21.5949 13.318C21.647 13.0599 21.6991 12.7502 21.5427 12.5437C21.1779 11.9759 21.0216 11.2532 20.7089 10.6338ZM38.3243 26.1715C38.2722 26.1715 38.2722 26.1199 38.2201 26.1199C37.4905 26.2231 37.0214 26.7909 36.6045 27.3071C36.5003 27.462 36.3439 27.6169 36.1354 27.5136C35.927 27.3588 36.0312 27.1523 36.0833 26.9974C36.1876 26.7909 36.4481 26.6877 36.4481 26.4812C35.3016 26.4296 34.5719 27.1523 33.8423 27.875C34.5719 28.1847 35.1973 27.7201 35.8227 27.7201C36.5003 27.7201 37.1257 27.5136 37.7511 27.3588C37.4905 27.2039 37.282 27.049 37.5426 26.7393C37.8032 26.5328 38.168 26.4296 38.3243 26.1715ZM19.5102 20.1319C19.4581 20.9578 19.3017 21.7838 19.6144 22.5581C19.8229 23.2291 19.9792 23.9518 20.3962 24.5713C20.4483 24.6745 20.5004 24.7777 20.6568 24.7261C20.761 24.6745 20.761 24.5713 20.761 24.4164C20.761 23.7453 20.761 23.0743 20.7089 22.4548C20.7089 22.3 20.7089 22.1451 20.5525 21.9902C19.9792 21.6289 19.875 21.0611 19.7708 20.4933C19.7187 20.39 19.6665 20.2352 19.5102 20.1319ZM19.9271 17.0863C19.5102 18.1703 20.0835 21.1643 20.761 21.5257C20.8652 20.8546 20.9173 20.2352 21.0216 19.5641C21.0216 19.4092 21.0737 19.0995 20.9695 19.0479C20.3441 18.5833 20.3441 17.7574 19.9271 17.0863ZM21.0216 18.4801C21.1258 17.809 21.2822 17.1379 21.3343 16.5185C21.3864 16.2088 21.5427 15.7958 21.3343 15.6926C20.6568 15.228 20.6046 14.5053 20.2398 13.6794C19.9792 15.4861 20.5525 16.9831 21.0216 18.4801ZM21.3343 7.53656C20.9173 9.03355 20.9173 10.3757 21.7512 11.821C21.9076 10.9951 22.0639 10.2724 22.1681 9.54976C22.2203 9.24003 22.3245 8.87869 22.0639 8.62059C21.6991 8.31087 21.5427 8.00115 21.3343 7.53656ZM6.63738 37.2699C6.79373 36.5988 6.53314 36.031 6.48103 35.4115C6.32468 33.2435 6.06409 31.127 6.01198 28.959C6.01198 28.6493 6.06409 28.3912 6.06409 28.0814C6.06409 27.875 5.95986 27.7717 5.75139 27.7717C5.49081 27.7717 5.59504 27.9782 5.59504 28.1331C5.64716 28.959 5.69928 29.7849 5.69928 30.6108C5.69928 31.4368 6.16833 32.2111 6.06409 32.9854C5.90774 33.9662 6.16833 34.8437 6.27256 35.7729C6.32468 36.2891 6.53314 36.7537 6.63738 37.2699ZM10.7546 25.1391C10.3377 25.0358 10.0771 24.7261 9.81649 24.5196C9.45168 24.1583 9.13898 24.2615 8.72204 24.3648C8.20088 24.5196 7.88818 24.9842 7.31489 25.0358C7.26278 25.0358 7.15854 25.1391 7.21066 25.2423C7.36701 25.5004 8.14876 25.7069 8.40934 25.5004C8.56569 25.3972 8.66993 25.3972 8.82628 25.3972C9.45168 25.5004 10.0771 25.2939 10.7546 25.1391ZM4.96965 22.2483C4.39636 21.6289 3.92731 21.1127 3.97943 20.3384C3.97943 20.1835 3.97943 19.7706 3.71885 19.7706C3.45826 19.7706 3.2498 20.0287 3.14556 20.2868C3.09345 20.39 3.09345 20.5449 3.04133 20.6481C2.9371 21.0611 3.14556 21.4224 3.14556 21.8354C3.14556 22.0935 3.19768 22.3 3.61461 22.3C4.08366 22.3 4.5006 22.1967 4.96965 22.2483ZM22.2724 4.80069C21.647 5.67823 21.5427 6.6074 21.8554 7.58818C21.9076 7.74304 21.9597 7.94953 22.1681 7.94953C22.3245 7.94953 22.3766 7.74304 22.3766 7.58818C22.533 6.96874 22.6372 6.40092 22.8978 5.83309C22.9499 5.72985 22.9499 5.52337 22.8978 5.52337C22.3245 5.57499 22.5851 4.95555 22.2724 4.80069ZM8.51358 23.8486C8.20088 23.6937 7.94029 23.384 7.57548 23.4356C7.00219 23.5389 6.48103 23.6937 5.90774 23.9002C5.75139 23.9518 5.54293 24.0551 5.75139 24.3132C5.90774 24.5196 6.06409 24.7777 6.37679 24.5713C6.58526 24.4164 6.79373 24.2099 7.00219 24.5713C7.05431 24.6745 7.21066 24.6229 7.31489 24.5713C7.67971 24.4164 8.04453 24.2099 8.40934 24.0551C8.46146 24.0551 8.56569 24.0034 8.51358 23.8486ZM43.8487 36.2374C44.0572 36.2374 44.3178 36.3407 44.422 36.031C44.5262 35.6696 44.6826 35.3083 44.891 34.9469C44.9953 34.6888 44.9432 34.534 44.5783 34.6372C44.2135 34.7405 43.9008 34.9469 43.536 35.0502C42.8585 35.205 42.9627 35.7212 43.067 36.1342C43.1712 36.5472 43.536 36.1858 43.7445 36.2374C43.7966 36.2374 43.7966 36.2374 43.8487 36.2374ZM9.13898 25.965C10.2334 26.7909 11.2236 26.7393 12.266 25.8618C12.2139 25.8101 12.1617 25.7585 12.0575 25.7585C11.0673 25.2423 10.1292 25.9134 9.13898 25.965ZM30.2984 13.2148C30.559 12.8018 30.8717 12.4921 30.4026 12.1308C30.2463 11.9759 30.1942 11.6662 30.2463 11.4597C30.3505 10.7886 30.1942 10.1176 30.2463 9.49813C30.2984 8.77545 29.8815 8.25925 29.7251 7.6398C29.3603 8.10439 29.4645 8.51735 29.673 9.03355C29.8815 9.39489 30.0378 9.85948 29.9857 10.2724C29.9857 11.15 30.0899 12.1308 30.2984 13.2148ZM25.66 3.25208C25.66 3.0456 25.6079 2.89074 25.6079 2.68426C25.6079 2.42615 25.4515 2.37453 25.2952 2.32291C24.9825 2.27129 24.357 2.52939 24.3049 2.7875C24.2007 3.25208 24.5134 3.76828 24.9304 3.8199C25.7121 4.02638 25.7121 4.02638 25.66 3.25208ZM34.9889 21.0611C35.4058 20.0803 34.6241 18.1703 34.2071 17.6025C34.1029 17.4993 34.1029 17.4477 33.9465 17.5509C33.7902 17.6541 33.686 17.7058 33.7381 17.9122C33.7902 18.0671 33.7902 18.222 33.9987 18.1703C34.3114 18.1187 34.4156 18.3768 34.3635 18.4801C34.1029 19.0479 34.8325 19.6157 34.2071 20.1319C34.2071 20.1319 34.2592 20.2352 34.3114 20.3384C34.4677 20.5965 34.6762 20.8546 34.9889 21.0611ZM22.6372 28.3912C23.3147 29.0106 24.8261 28.546 25.3994 27.6169C24.3049 27.2039 23.5232 27.9782 22.6372 28.3912ZM3.92731 23.0227C4.29213 23.2291 4.5006 23.5905 4.91753 23.5389C5.49081 23.4356 6.06409 23.3324 6.63738 23.1775C6.74161 23.1775 6.84584 23.1259 6.89796 22.971C6.89796 22.8678 6.79373 22.8162 6.74161 22.7646C6.37679 22.4548 6.01198 22.7129 5.64716 22.6613C5.02176 22.6097 4.50059 22.8162 3.92731 23.0227ZM29.7772 28.2879C30.0378 28.2879 30.3505 28.3395 30.6111 28.2879C31.0801 28.2879 31.5492 28.3395 31.6534 27.6685C31.7055 27.5136 31.8098 27.3588 31.914 27.2039C31.1844 26.9974 30.3505 27.3588 29.7772 28.2879ZM25.3473 28.546C25.9206 28.546 26.4418 28.4428 26.9108 28.6493C27.015 28.7009 27.1714 28.7009 27.1714 28.5976C27.1714 28.0814 27.6926 27.875 27.8489 27.462C26.2854 27.6685 25.9727 27.8233 25.3473 28.546ZM26.8587 4.80069C26.8066 4.23286 27.015 3.71666 27.0672 3.14884C27.1193 2.68426 26.7545 2.73588 26.4939 2.58101C26.3375 2.47777 26.1812 2.63264 26.1812 2.7875C26.1812 3.25208 26.0769 3.71666 26.1812 4.18124C26.2333 4.49097 26.6502 4.64583 26.8587 4.80069ZM28.0574 5.88471C28.0053 5.31689 28.1095 4.90393 28.318 4.49097C28.4222 4.28448 28.0574 3.66504 27.6404 3.25208C27.5883 3.71666 27.5362 4.18124 27.3799 4.59421C27.1714 5.26527 27.5883 5.47175 28.0574 5.88471ZM18.7284 22.5064C17.8425 23.5905 17.7903 24.4164 18.5721 25.7585C18.6242 25.5004 18.6242 25.4488 18.52 25.2939C18.4679 25.2423 18.3636 25.1907 18.4679 25.0358C18.9369 24.3132 18.7284 23.4872 18.7284 22.5064ZM22.8978 4.3361C22.8978 4.49097 22.8457 4.64583 22.8457 4.80069C22.8457 4.95555 23.002 5.05879 23.1584 5.00717C23.6274 4.80069 23.9922 3.8199 23.8359 3.35532C23.7316 2.99398 23.5232 3.0456 23.3147 3.20046C22.8457 3.40694 22.8978 3.92314 22.8978 4.3361ZM34.155 26.7909C33.3211 26.7393 32.8 27.049 32.383 27.6169C32.2788 27.7201 32.0704 27.8233 32.1746 28.0298C32.2788 28.2879 32.5394 28.1331 32.6436 28.1331C32.9042 28.1331 33.4254 28.2363 33.4254 27.9782C33.4775 27.462 33.8944 27.2555 34.155 26.7909ZM40.409 25.7585C39.6794 25.7585 38.1159 26.8426 38.0116 27.3588C38.4286 27.2039 38.7934 27.1523 39.2103 27.1007C39.3667 27.1007 39.6273 26.9974 39.6273 26.8426C39.6273 26.3264 40.0442 26.1199 40.409 25.7585ZM28.6828 5.21365C28.3701 5.78147 28.4743 6.8655 28.8912 7.22684C28.9955 7.33008 29.1518 7.53656 29.2561 7.3817C29.4124 7.17522 29.673 6.8655 29.4645 6.55578C29.2039 6.14282 29.0997 5.57499 28.6828 5.21365ZM21.0216 27.5136C21.0216 27.462 20.9695 27.4104 20.9695 27.4104C20.8131 27.4104 20.6046 27.4104 20.5004 27.3588C19.8229 27.1007 19.3538 27.5136 18.9369 27.9782C18.7284 28.2363 18.8327 28.3395 19.0933 28.3912C19.9271 28.4944 20.4483 27.875 21.0216 27.5136ZM42.5458 13.9375C43.2233 13.2148 43.2754 12.4921 42.7543 11.7694C42.65 11.6662 42.5979 11.5113 42.4416 11.5629C42.2852 11.6146 42.1289 11.7694 42.0767 11.9243C42.0246 12.0275 42.1289 12.1308 42.2331 12.234C42.4416 12.4405 42.7021 12.647 42.4416 13.0083C42.2852 13.2664 42.3373 13.5761 42.5458 13.9375ZM12.6308 27.2039C12.9956 26.9974 13.4647 26.7393 13.8295 26.4812C13.9337 26.378 13.8295 26.2747 13.7252 26.2747C13.4125 26.2747 13.0998 26.0166 12.7871 26.3264C12.5266 26.5328 12.1617 26.6361 11.849 26.7909C11.7448 26.8426 11.5363 26.8426 11.5363 26.9974C11.5363 27.2555 11.7448 27.1007 11.9012 27.1007C12.1096 27.1523 12.3702 27.1523 12.6308 27.2039ZM15.862 7.6398C15.7057 7.6398 15.6014 7.6398 15.5493 7.74304C15.4972 7.84628 15.6014 7.89791 15.6536 7.94953C16.3832 8.10439 16.9044 8.51735 17.4255 9.03355C17.5298 9.13679 17.634 9.13679 17.7382 8.98193C17.8946 8.77545 18.2073 8.56897 17.6861 8.41411C17.8425 7.74304 17.3213 8.05277 17.0607 7.94953C16.8001 7.89791 16.4874 7.89791 16.2268 7.79466C16.1226 7.79466 16.0705 7.6398 15.862 7.6398ZM16.8001 27.9266C17.3213 27.9782 17.634 28.2363 18.103 28.2363C18.2594 28.2363 18.4157 28.2363 18.4157 28.0814C18.4157 27.8233 18.6242 27.6169 18.7806 27.4104C17.9467 26.9458 17.4776 27.462 16.8001 27.9266ZM29.7251 27.3071C29.1518 27.6685 28.4222 27.6169 27.9531 28.1847C27.901 28.2879 27.7447 28.2879 27.7968 28.4428C27.8489 28.546 28.0053 28.546 28.1095 28.546C29.0476 28.7009 29.3603 27.9782 29.7251 27.3071ZM23.2105 27.5652C22.2203 27.4104 21.4906 27.6685 20.6568 28.4428C21.0216 28.3912 21.3343 28.7009 21.5949 28.4428C22.0639 28.0814 22.5851 27.875 23.2105 27.5652ZM13.3604 27.2039C14.3506 27.6685 14.8197 27.5652 15.393 26.7909C14.5591 26.1199 14.1422 27.1007 13.3604 27.2039ZM5.49081 26.1199C5.49081 26.4296 5.49081 26.7393 5.54293 26.9974C5.54293 27.1007 5.54293 27.2039 5.64716 27.2039C5.75139 27.2039 5.85563 27.1523 5.85563 26.9974C5.85563 26.9458 5.85563 26.8426 5.85563 26.7909C6.01198 26.378 5.69928 25.8101 6.22044 25.5004C6.27256 25.4488 6.22044 25.2939 6.16833 25.2939C5.95986 25.2423 5.80351 24.9326 5.54293 24.9842C5.38658 25.0358 5.49081 25.1907 5.49081 25.2939C5.43869 25.552 5.49081 25.8618 5.49081 26.1199ZM17.0607 27.1523C16.5395 26.9974 16.1226 26.9974 15.7057 27.3071C15.6014 27.4104 15.2887 27.462 15.4972 27.7201C15.6536 27.9266 15.862 27.9266 16.0705 27.8233C16.3832 27.6169 16.6959 27.3588 17.0607 27.1523ZM17.2171 22.0935C16.748 23.0227 16.8001 24.0034 17.1649 24.9326C17.0086 24.0034 17.2692 23.0743 17.2171 22.0935ZM12.4223 20.0287C12.5787 19.6673 12.7871 19.5641 12.9435 19.3576C13.0998 19.2028 13.152 18.9963 12.8393 18.9963C12.4744 18.9963 12.3181 18.7382 12.0575 18.4801C12.0575 18.9963 12.2139 19.4609 12.4223 20.0287ZM33.8944 19.7706C34.1029 19.0995 33.5817 18.893 33.2169 18.5317C33.1127 18.4284 33.0084 18.3252 32.9042 18.4801C32.8 18.5833 32.6436 18.6865 32.9042 18.8414C33.269 19.1511 33.5817 19.4609 33.8944 19.7706ZM17.2692 25.4488C17.3213 25.7069 17.3213 25.9134 17.3734 25.965C17.6861 26.0683 17.8946 26.1715 17.8425 26.5328C17.8425 26.5845 18.2594 26.6361 18.4679 26.6877C18.5721 26.6877 18.6242 26.6361 18.6242 26.5328C18.6242 26.2747 18.3115 26.3264 18.3115 26.2747C18.103 25.9134 17.5819 25.965 17.2692 25.4488ZM41.764 11.2532C41.9725 10.737 41.9725 10.737 42.4416 10.9435C42.3894 10.737 42.3894 10.5305 42.3894 10.2724C41.3992 10.7886 41.3992 10.7886 41.764 11.2532ZM17.3734 21.7838C17.9467 21.4224 18.4157 20.9578 18.9369 20.5449C18.52 20.4933 17.5819 21.2676 17.3734 21.7838ZM29.9336 22.1967C29.9336 22.0419 29.8815 21.9386 29.7251 21.9902C29.5688 22.0419 29.3603 22.1451 29.4124 22.3C29.4124 22.5065 29.6209 22.5581 29.7772 22.5581C29.9857 22.5064 29.8815 22.3 29.9336 22.1967ZM18.2594 21.9902C18.7284 21.9386 19.0411 21.8354 18.8848 21.2676C18.6242 21.474 18.3636 21.6805 18.2594 21.9902ZM4.81329 20.2352C4.65694 20.9062 4.70906 21.0095 5.12599 21.2676C4.96964 20.9062 4.86541 20.5965 4.81329 20.2352Z" fill="#A49279"/>
<path d="M23.2625 21.216C23.5752 22.4033 23.2625 23.5389 22.9498 24.6746C22.7934 25.1907 22.6371 25.6553 22.4807 26.1198C22.3765 26.3779 22.168 26.5328 22.0117 26.4296C21.699 26.2747 21.9074 26.0682 22.0638 25.8617C22.585 25.0358 22.6892 24.1068 22.585 23.126C22.5328 22.713 22.2723 22.5581 21.9596 22.4549C21.8032 22.4033 21.5426 22.3517 21.699 22.0936C21.8032 21.8871 22.0117 21.8355 22.2201 21.9903C22.4807 22.1968 22.7413 22.3 23.0019 22.6614C23.054 22.1968 23.0019 21.8871 22.8977 21.5774C22.8455 21.4225 22.7413 21.3193 22.7413 21.1644C22.7413 20.6998 22.8977 20.132 22.1159 20.132C22.0117 20.132 22.0117 19.9771 22.0638 19.8739C22.168 19.6674 22.3765 19.6674 22.4807 19.719C22.8977 19.9255 23.3146 20.132 23.5752 20.4933C24.6696 22.0936 24.5654 23.8486 23.94 25.552C23.94 25.6036 23.8879 25.6036 23.8879 25.6553C23.7315 25.8101 23.6273 26.2231 23.3146 26.0166C23.054 25.8617 23.3146 25.6036 23.4188 25.3972C24.1485 24.1068 24.0442 22.8162 23.5752 21.4741C23.4709 21.4741 23.3146 21.3193 23.2625 21.216Z" fill="#726350"/>
<path d="M33.686 15.5376C33.7903 15.1246 33.8945 14.5568 34.0509 14.0406C34.3114 12.8533 34.6241 11.6661 35.1453 10.5304C35.9792 8.77534 37.1779 7.27835 38.6892 6.03946C38.7414 5.98784 38.8456 5.93622 38.8977 5.8846C39.054 5.78136 39.2104 5.72974 39.3146 5.8846C39.4189 6.03946 39.3668 6.19432 39.2104 6.29756C38.7414 6.76215 38.2202 7.22673 37.7511 7.69131C36.6046 8.77534 35.8749 10.1175 35.3017 11.5628C34.8326 12.8533 34.4678 14.1439 34.3114 15.486C34.3114 15.5892 34.2593 15.6925 34.2072 15.7957C34.1551 15.8989 34.0509 16.0538 33.8424 16.0022C33.686 15.9506 33.686 15.8473 33.686 15.5376Z" fill="#726350"/>
<path d="M36.0312 10.9437C35.7185 11.6147 35.927 12.2858 35.7185 13.0601C36.1876 12.4923 36.3439 11.8728 36.9693 11.4082C36.813 12.0793 36.5524 12.6471 36.5003 13.2666C36.5003 13.4731 36.1876 13.6795 35.9791 13.886C35.7706 14.0925 35.5622 14.1957 35.4579 14.5055C35.4058 14.6603 35.2495 14.6087 35.1452 14.5571C34.9368 14.4538 34.9889 14.2474 35.041 14.1441C35.1452 13.6795 35.3016 13.2666 35.51 12.8536C35.7185 12.4406 35.4058 12.0277 35.5622 11.6147C35.7185 11.305 35.7706 11.0985 36.0312 10.9437Z" fill="#726350"/>
<path d="M37.4903 10.2725C37.4382 9.85953 37.5945 9.60142 37.4903 9.24008C36.9691 9.60142 36.7607 10.2209 36.2395 10.5306C36.2395 10.1176 36.5522 9.91115 36.7086 9.65304C37.1255 9.0336 37.5945 8.41416 38.0115 7.79471C38.1157 7.63985 38.2721 7.43337 38.4284 7.58823C38.6369 7.74309 38.4284 7.89795 38.3242 8.05282C38.1157 8.31092 37.9594 8.56902 38.0115 8.98198C38.1157 9.44656 37.803 9.80791 37.4903 10.2725Z" fill="#726350"/>
<path d="M5.54277 4.23289C5.28218 5.47177 4.96948 6.71066 4.34408 7.84628C4.13562 8.25924 3.87503 8.62059 3.61445 9.03355C3.51022 9.13679 3.4581 9.39489 3.24963 9.29165C3.04117 9.24003 3.04117 8.98193 3.09328 8.82707C3.35387 7.58818 3.61445 6.34932 4.0835 5.16205C4.23985 4.74909 4.3962 4.38775 4.55255 3.97478C4.65678 3.71668 4.76102 3.5102 5.12583 3.56182C5.54277 3.66506 5.49065 3.92316 5.54277 4.23289ZM5.07372 4.28451C4.34408 4.95557 4.3962 5.88474 4.03138 6.5558C4.60467 5.93636 5.0216 5.21367 5.07372 4.28451Z" fill="#726350"/>
<path d="M4.4486 11.9758C4.39648 10.6853 5.02188 9.54966 5.49093 8.41401C5.59517 8.15591 5.75152 7.89781 5.85575 7.63971C5.90787 7.48487 5.90787 7.27836 6.16845 7.32998C6.37692 7.3816 6.48115 7.53646 6.48115 7.74295C6.58538 8.31077 6.58538 8.87859 6.3248 9.39479C5.90787 10.2723 5.54305 11.1499 5.23035 12.0274C5.17823 12.1307 5.12612 12.2339 5.074 12.3372C4.96977 12.5436 4.86553 12.6985 4.60495 12.6469C4.34437 12.5953 4.4486 12.3372 4.39648 12.1823C4.4486 12.1823 4.4486 12.0791 4.4486 11.9758Z" fill="#726350"/>
<path d="M7.52337 12.1308C7.62761 12.7503 7.31491 13.3181 7.15856 13.8859C7.00221 14.6086 6.84586 15.2797 6.58527 16.0023C6.53316 16.2088 6.42892 16.4153 6.22046 16.4153C6.01199 16.4153 5.85564 16.2604 5.80352 16.054C5.64717 15.5894 5.75141 15.1764 5.80352 14.7635C5.95987 13.9375 6.11622 13.1116 6.48104 12.3373C6.58527 12.0792 6.68951 11.8211 6.68951 11.563C6.68951 11.3049 6.89797 11.15 7.10644 11.0984C7.36702 11.0468 7.31491 11.3565 7.41914 11.5114C7.57549 11.6662 7.52337 11.9243 7.52337 12.1308ZM7.10644 12.0276C6.63739 12.6986 6.42892 13.4213 6.32469 14.1956C6.32469 14.2989 6.42892 14.3505 6.48104 14.3505C6.58527 14.3505 6.63739 14.2989 6.63739 14.1956C6.79374 13.5246 7.26279 12.8535 7.10644 12.0276Z" fill="#726350"/>
<path d="M8.77404 16.4667C8.93039 17.1378 8.66981 17.7572 8.46134 18.3767C8.30499 18.8929 8.14864 19.4091 7.94018 19.9253C7.83594 20.1318 7.73171 20.4415 7.47113 20.3899C7.21055 20.3383 7.31478 20.0285 7.31478 19.8221C7.41901 18.5832 7.67959 17.3443 8.09653 16.2086C8.14864 16.1054 8.14864 15.9505 8.20076 15.8473C8.25288 15.7441 8.35711 15.5892 8.56558 15.6408C8.72193 15.6924 8.77404 15.7957 8.77404 15.9505C8.77404 16.1054 8.77404 16.2603 8.77404 16.4667ZM8.25288 16.9313C8.09653 17.3959 7.9923 17.9121 7.83595 18.3767C8.14865 17.9637 8.35711 17.4991 8.25288 16.9313Z" fill="#726350"/>
<path d="M9.08678 22.3C9.24313 21.6289 9.34736 20.9063 9.50371 20.2352C9.55583 20.0287 9.50371 19.8739 9.55583 19.6674C9.55583 19.5125 9.60795 19.306 9.7643 19.2544C9.97276 19.1512 10.0249 19.3577 10.077 19.4609C10.1812 19.719 10.1812 19.5125 10.2855 19.4609C10.3376 19.4093 10.3897 19.306 10.4939 19.3577C10.5982 19.4093 10.5982 19.5125 10.5982 19.6158C10.3897 20.5449 10.3897 21.5257 10.0249 22.4549C9.97276 22.6613 9.81641 22.8678 9.50371 22.7646C9.19101 22.713 9.03466 22.6097 9.08678 22.3ZM9.86853 20.6482C9.50371 21.1127 9.39948 21.7838 9.55583 22.2484C9.7643 21.6806 9.7643 21.1644 9.86853 20.6482Z" fill="#726350"/>
<path d="M34.1548 38.5604C34.6238 38.5088 35.0929 38.2507 35.6141 38.3539C35.7704 38.3539 35.8746 38.3539 35.8746 38.5088C35.8746 38.6636 35.7704 38.7152 35.6662 38.7152C34.5717 38.6636 33.5815 39.1798 32.5392 39.4379C32.3828 39.4895 32.1744 39.4895 32.1222 39.2831C32.0701 39.0766 32.2786 39.0766 32.3828 39.025C32.9561 38.7669 33.5294 38.6636 34.1548 38.5604Z" fill="#726350"/>
<path d="M14.976 39.6441C14.2985 39.5925 13.7252 39.3344 13.0477 39.4892C12.9435 39.4892 12.8914 39.4376 12.8392 39.3344C12.8392 39.1795 12.8914 39.0763 12.9956 39.0247C13.2562 38.973 13.5167 38.9214 13.7773 38.973C14.1421 39.0763 14.507 39.1795 14.9239 39.2828C15.0281 39.3344 15.1845 39.3344 15.1845 39.5409C15.1845 39.6957 15.0802 39.6441 14.976 39.6441Z" fill="#726350"/>
<path d="M23.2104 40.0575C22.7414 40.264 22.2723 40.0575 21.8033 40.0575C20.7088 40.0575 19.6144 40.2124 18.4678 40.1608C18.2594 40.1608 17.9988 40.2124 17.9467 39.9543C17.9467 39.6446 18.2594 39.6446 18.4678 39.6446C19.1453 39.6446 19.875 39.6962 20.5525 39.6962C21.3864 39.6962 22.1681 39.7478 23.002 39.851C23.1583 39.9027 23.2104 39.9027 23.2104 40.0575Z" fill="#726350"/>
<path d="M23.3667 41.967C22.2201 42.2251 21.2299 42.1735 20.2397 42.1735C19.7185 42.1735 19.2495 42.1735 18.7283 42.1735C18.572 42.1735 18.4156 42.1735 18.3635 42.0187C18.3114 41.8122 18.5199 41.7089 18.6762 41.7089C19.041 41.6057 19.458 41.6057 19.8228 41.7089C20.7088 41.9154 21.6469 41.8122 22.585 41.8638C22.7934 41.8122 23.0019 41.8638 23.3667 41.967Z" fill="#726350"/>
<path d="M22.9499 35.8247C22.4287 35.928 22.0118 35.7731 21.5948 35.7215C20.8131 35.6699 20.0313 35.6182 19.2496 35.7731C18.9369 35.8247 18.6242 35.7731 18.3115 35.6699C18.1551 35.6182 17.9988 35.6699 17.9988 35.4634C17.9988 35.3085 18.1551 35.2053 18.3115 35.2053C18.5721 35.2053 18.7805 35.2569 19.0411 35.3085C20.0313 35.4118 21.0737 35.3085 22.0639 35.4634C22.3245 35.515 22.6372 35.515 22.9499 35.8247Z" fill="#726350"/>
<path d="M17.9467 5.16199C17.7903 5.11037 17.5819 5.26523 17.4255 5.36847C16.8001 5.67819 16.1747 5.93629 15.4451 5.93629C14.9239 5.93629 14.4549 6.14277 14.0379 6.40087C13.5689 6.65898 12.9956 6.86546 12.5787 7.17518C12.4223 7.27842 12.1096 7.43328 11.9533 7.2268C11.7969 7.02032 11.7969 6.7106 12.0575 6.50411C12.4223 6.14277 12.7871 5.78143 13.2562 5.47171C14.3506 4.80065 15.4972 4.23282 16.8001 4.07796C17.4255 4.02634 18.103 4.02634 18.7284 4.28444C19.0933 4.4393 18.7806 4.38768 18.7284 4.4393C18.6242 4.54254 18.6242 4.74902 18.52 4.90389C18.3636 5.16199 18.3115 5.31685 17.9467 5.16199ZM13.4646 6.03953C14.3506 5.67819 15.2366 5.42009 16.2268 5.36847C16.748 5.36847 17.3734 5.21361 17.7903 4.6974C16.0705 4.4393 14.6633 5.00713 13.4646 6.03953Z" fill="#726350"/>
<path d="M29.3603 39.9541C29.204 40.0057 28.9955 40.109 28.8392 40.109C27.9532 40.109 27.0672 40.3154 26.1812 40.3671C25.9727 40.3671 25.7122 40.4703 25.7122 40.1606C25.7122 39.9025 25.9727 39.9025 26.1291 39.9025C27.2235 39.9025 28.2659 39.7476 29.3603 39.9541Z" fill="#726350"/>
<path d="M44.9952 29.63C45.1515 29.6816 45.36 29.5268 45.4121 29.7332C45.4642 29.8881 45.3079 29.9397 45.2036 29.9914C44.5782 30.3011 43.8486 30.3527 43.3274 30.8689C43.2753 30.9205 43.0668 30.9721 43.0147 30.8173C42.9105 30.6624 43.0147 30.5592 43.119 30.4559C43.588 29.8365 44.3176 29.7849 44.9952 29.63Z" fill="#726350"/>
<path d="M13.8815 17.0862C13.9858 16.8281 14.0379 16.57 14.1421 16.3119C14.1942 16.0538 14.1942 15.8989 13.8294 15.8989C13.6731 15.8989 13.4646 15.9506 13.4646 15.6925C13.5167 15.4343 13.7252 15.4343 13.8815 15.486C14.1942 15.6408 14.5069 15.7957 14.6112 15.2279C14.6112 15.2279 14.7675 15.1762 14.8196 15.2279C14.8717 15.2795 14.9239 15.3311 14.9239 15.4343C14.8196 16.1054 14.5069 16.6732 14.0379 17.1894C13.9858 17.1378 13.9336 17.0862 13.8815 17.0862Z" fill="#726350"/>
<path d="M14.7676 12.1825C14.7155 11.8211 14.924 11.6147 14.924 11.3566C14.9761 11.0985 14.924 10.8404 14.5592 10.8404C14.4028 10.8404 14.1422 10.9436 14.2465 10.6339C14.2986 10.4274 14.5071 10.2209 14.7676 10.3758C15.0282 10.5306 15.2888 10.7887 15.6015 10.479C15.6536 10.4274 15.7579 10.479 15.7579 10.5823C15.81 10.6855 15.7579 10.7887 15.7057 10.8404C15.4452 10.9952 15.5494 11.2017 15.6536 11.4082C15.9142 11.976 16.3833 12.4406 16.7481 12.9052C16.2269 12.9052 16.0706 12.4922 15.8621 12.1825C15.3409 11.4598 15.3409 11.4598 14.7676 12.1825Z" fill="#726350"/>
</svg>
