<svg width="51" height="41" viewBox="0 0 51 41" fill="none" xmlns="http://www.w3.org/2000/svg">
<path d="M21.5985 39.812C20.7394 40.103 19.9209 40.2115 19.0525 40.0557C18.4264 39.9303 17.8916 39.6053 17.372 39.247C16.6557 38.7586 16.1872 38.1018 15.6176 37.4793C14.7507 36.4795 14.1012 35.378 13.6337 34.1585C13.2515 33.2195 12.8694 32.2804 12.4367 31.3585C12.2758 30.9631 12.216 30.5335 12.0551 30.1381C11.9295 29.7589 12.1827 29.3919 12.6528 29.2046C13.6788 28.829 14.6494 28.3879 15.7004 28.1444C15.9884 28.075 15.9987 27.959 15.8982 27.7119C15.4051 26.6417 14.8616 25.5886 14.3838 24.4851C14.0669 23.777 13.7196 23.1355 13.438 22.4436C13.1162 21.6528 12.6428 20.9133 12.2704 20.1397C11.747 19.136 11.2741 18.1152 10.786 17.1277C10.1418 15.8275 9.56347 14.4769 8.81827 13.2109C8.03285 11.8461 7.41425 10.3967 6.52775 9.0661C6.39676 8.88552 6.33152 8.65456 6.23096 8.40744C5.99451 7.89705 5.54558 7.57109 5.06623 7.31166C4.0722 6.77666 3.04775 6.3082 2.05372 5.7732C1.84176 5.67628 1.69556 5.52897 1.69607 5.24762C1.7216 5.09839 1.59061 4.91781 1.47973 4.78666C1.09166 4.32761 0.85521 3.81722 0.431813 3.34203C0.230171 3.12914 0.144822 2.84875 0.024146 2.55221C-0.0361918 2.40394 0.0197633 2.18817 0.156169 2.17009C0.600711 2.13201 0.964802 1.89623 1.34901 1.70988C1.79896 1.47314 2.34948 1.48352 2.80434 1.32948C3.37549 1.10793 3.93143 0.919652 4.50258 0.698105C5.21013 0.45848 5.91769 0.218855 6.61003 0.0124992C6.76165 -0.0388491 6.92306 0.0751895 6.9834 0.22346C7.33563 0.947699 7.85469 1.58732 8.14116 2.36194L8.17649 2.3781C8.92762 3.16407 8.60272 4.06139 8.47998 4.89025C8.37245 5.68584 8.24971 6.5147 8.14219 7.31029C8.09113 7.60876 8.29767 7.90434 8.44877 8.13434C8.92219 8.87377 9.25921 9.63128 9.58101 10.4221C10.1746 11.7394 10.8845 12.9892 11.5134 14.3227C11.9259 15.1952 12.3385 16.0677 12.7663 16.9069C13.2544 17.8944 13.8284 18.881 14.266 19.8856C14.6432 20.742 15.0862 21.5479 15.514 22.3872C15.9216 23.177 16.3494 24.0162 16.7571 24.8061C16.9533 25.2176 17.2202 25.6615 17.4012 26.1063C17.542 26.4522 17.8344 26.7468 17.8741 27.127C17.904 27.3419 18.1062 27.2734 18.2578 27.222C18.8795 26.9834 19.5012 26.7447 20.1076 26.5393C20.512 26.4024 20.8608 26.1999 21.2499 26.0962C21.3864 26.0782 21.4472 25.9451 21.5282 25.8614C21.6901 25.6941 21.8667 25.7749 22.0434 25.8556C22.1847 25.9203 22.1238 26.0533 22.0782 26.1531C21.9668 26.3033 22.0777 26.4345 22.1532 26.5495C22.5761 27.306 22.7968 28.1311 23.1186 28.9218C23.4654 29.8447 23.8628 30.7505 24.1237 31.6744C24.3395 32.4167 24.5048 33.1761 24.5843 33.9365C24.6735 34.8623 24.798 35.8042 24.665 36.7491C24.5422 37.5779 24.1521 38.2443 23.5098 38.7149C22.8522 39.2187 22.311 39.6551 21.5985 39.812ZM21.5978 26.4564C21.4967 26.4907 21.431 26.541 21.3652 26.5914C20.3191 26.9176 19.3132 27.3426 18.3426 27.7838C18.1253 27.8855 18.0443 27.9692 18.1247 28.1669C18.4416 28.875 18.5716 29.6182 18.7874 30.3605C19.0283 31.235 19.2185 32.1265 19.4746 32.9677C19.7105 33.7594 19.7747 34.5531 20.1118 35.3106C20.2324 35.6072 20.3531 35.9037 20.3374 36.2183C20.3423 36.301 20.332 36.417 20.1956 36.4351C20.1097 36.436 19.9885 36.4208 19.9635 36.2887C19.8075 35.976 19.5808 35.631 19.4754 35.3012C19.1188 34.2129 18.4285 33.2939 17.9404 32.3064C17.5126 31.4671 17.1707 30.6269 16.7934 29.7706C16.6325 29.3752 16.4716 28.9798 16.2602 28.6015C16.22 28.5027 16.2151 28.42 16.0634 28.4713C15.7146 28.6738 15.2499 28.6625 14.8809 28.8156C14.1429 29.1217 13.4202 29.3946 12.6822 29.7008C12.5811 29.735 12.4447 29.7531 12.4898 29.9346C12.56 30.2483 12.5997 30.6285 12.7203 30.925C13.0824 31.8147 13.4596 32.671 13.8216 33.5606C14.3294 34.8789 15.0191 36.0793 15.9616 37.1941C16.4605 37.7843 16.9948 38.3907 17.6252 38.8801C18.2758 39.419 18.947 39.7259 19.7905 39.7495C20.8056 39.7713 21.6599 39.3976 22.4941 38.9745C23.576 38.3831 24.214 37.5485 24.3122 36.3062C24.3643 35.445 24.1436 34.62 24.1299 33.8092C24.1152 33.5611 24.1005 33.313 24.0858 33.065C23.951 32.239 23.6645 31.4644 23.3427 30.6736C22.7947 29.2565 22.3479 27.8051 21.5978 26.4564ZM15.8796 26.8184C15.9802 27.0655 16.0405 27.2138 16.1209 27.4115C16.2264 27.7413 16.3574 27.9219 16.797 27.8011C17.5905 27.5605 17.641 27.5434 17.2687 26.7697C17.2687 26.7697 17.2333 26.7536 17.2485 26.7203C16.6044 25.4201 15.9755 24.0866 15.2809 22.8035C14.7422 21.8331 14.234 20.7962 13.7459 19.8087C13.2828 18.9533 12.8197 18.0979 12.4424 17.2416C12.1456 16.5829 11.8135 15.9081 11.5167 15.2494C11.0639 14.2781 10.5253 13.3077 10.0372 12.3202C9.36802 10.8878 8.79997 9.42128 7.97922 8.0403C7.82812 7.8103 7.69223 7.54703 7.7585 7.21529C7.94699 6.33605 8.04962 5.45776 8.18757 4.59563C8.21852 4.24774 8.40108 3.8485 7.90651 3.62235C7.83586 3.59004 7.78042 3.52447 7.77552 3.44177C7.42871 2.51888 6.8341 1.76425 6.35578 0.942131C6.29544 0.79386 6.22479 0.761552 6.1085 0.829054C5.87101 0.881365 5.61831 0.966945 5.38083 1.01926C4.58741 1.25984 3.83421 1.59928 3.05601 1.8066C2.2778 2.01391 1.61537 2.43508 0.86759 2.57586C0.76651 2.61009 0.579566 2.64528 0.639903 2.79356C0.775792 3.05683 0.962221 3.30298 1.09811 3.56626C1.17366 3.68126 1.27474 3.64702 1.39593 3.66222C1.43126 3.67837 1.56766 3.66029 1.50681 3.79337C1.36989 4.0928 1.35467 4.12607 1.5362 4.28953C1.89926 4.61646 1.84769 5.19627 2.34226 5.42243C2.31131 5.77032 2.63956 5.79974 2.85152 5.89666C3.79011 6.36608 4.80967 6.75185 5.68741 7.35435C5.91948 7.5007 6.23251 7.56339 6.3684 7.82666C6.48908 8.1232 6.60975 8.41974 6.73043 8.71628C6.97668 9.39206 7.45551 9.93284 7.78273 10.525C7.97896 10.9365 8.13986 11.3319 8.37141 11.7596C8.90517 12.6473 9.38839 13.5521 9.85639 14.4902C10.1483 15.0662 10.3391 15.6764 10.6815 16.2352C11.1245 17.0412 11.5523 17.8804 11.9447 18.7035C12.4579 19.8231 13.0368 20.8924 13.5499 22.012C14.3299 23.5755 15.1148 25.2217 15.8796 26.8184ZM19.3666 34.0446C19.3926 33.6141 19.2317 33.2187 19.1213 32.8062C18.7603 31.3538 18.3488 29.9186 17.9373 28.4834C17.8019 27.9388 17.7666 27.9226 17.2259 28.0776C17.1248 28.1119 17.0742 28.129 16.953 28.1138C16.6248 28.0844 16.5688 28.3002 16.6846 28.514C16.9863 29.2554 17.3233 30.0129 17.625 30.7542C17.806 31.199 18.0528 31.5935 18.249 32.005C18.5507 32.7464 18.9334 33.4041 19.3666 34.0446Z" fill="#726350"/>
<path d="M23.0954 36.0716C23.2795 34.8283 22.9838 33.607 22.7386 32.3685C22.5385 31.3116 22.2373 30.2888 21.734 29.3346C21.6182 29.1208 21.5225 28.9563 21.4067 28.7425C21.3464 28.5942 21.2154 28.4136 21.3822 28.329C21.5996 28.2273 21.6649 28.4582 21.7404 28.5732C22.2285 29.5608 22.6813 30.5321 22.9167 31.6052C23.1119 32.5794 23.393 33.5527 23.4366 34.5783C23.4458 35.0251 23.5258 35.5041 23.3128 35.9699C23.247 36.0203 23.2166 36.0868 23.0954 36.0716Z" fill="#726350"/>
<path d="M21.2996 29.2568C21.5356 30.0485 21.7362 30.8241 21.952 31.5664C21.9922 31.6653 22.1433 31.8953 21.8705 31.9314C21.633 31.9837 21.689 31.768 21.664 31.6358C21.428 30.8441 21.1921 30.0524 20.9361 29.2112C20.911 29.0791 20.78 28.8985 20.9469 28.8139C21.149 28.7454 21.1637 28.9935 21.2393 29.1085C21.2947 29.1741 21.2996 29.2568 21.2996 29.2568Z" fill="#726350"/>
<path d="M19.8463 39.5338C20.1093 39.3323 20.4223 39.395 20.781 39.3579C20.4522 39.6098 20.1392 39.5471 19.8463 39.5338Z" fill="#726350"/>
<path d="M2.14949 3.0415C2.52338 2.97111 2.8163 2.98438 3.11954 2.88168C3.62493 2.71052 4.20098 2.57167 4.68626 2.35108C5.1058 2.18088 5.55034 2.1428 5.96987 1.9726C6.12149 1.92125 6.21277 1.72163 6.41983 1.73586C6.62688 1.75009 6.79862 1.74817 6.73235 2.0799C6.65086 2.44491 6.79165 2.79088 7.01341 3.05319C7.714 3.85627 7.45485 4.70321 7.28157 5.54918C7.18487 5.94746 7.00231 6.3467 6.8904 6.77824C6.83445 6.99402 6.74858 6.99498 6.57195 6.91421C6.02195 6.62248 5.47194 6.33075 4.97248 6.0219C4.5991 5.81094 4.18009 5.69979 3.80671 5.48883C3.3828 5.29498 3.04475 5.10018 2.82841 4.63921C2.70774 4.34267 2.38491 4.11459 2.24412 3.76862C2.224 3.7192 2.15335 3.68689 2.11803 3.67074C1.99683 3.65555 1.72892 3.7744 1.74955 3.54247C1.84083 3.34285 1.87668 3.07765 2.14949 3.0415ZM3.21468 3.32745C3.07828 3.34553 2.92666 3.39688 2.82558 3.43111C2.7245 3.46535 2.62342 3.49958 2.7343 3.63073C2.94084 3.92631 3.07673 4.18958 3.23273 4.50228C3.3284 4.6667 3.46428 4.92998 3.76752 4.82728C3.81806 4.81016 3.92404 4.85863 3.92894 4.94132C3.97406 5.12286 4.15069 5.20363 4.292 5.26824C4.94308 5.52574 5.56374 5.84978 6.16918 6.20709C6.36592 6.33728 6.51754 6.28593 6.60882 6.08631C6.97885 5.37053 6.9853 4.60917 7.00696 3.81454C7.00206 3.73185 6.99716 3.64916 6.94172 3.58358C6.73518 3.288 6.54385 2.95915 6.38785 2.64645C6.27207 2.43261 6.09544 2.35184 5.87807 2.45357C5.03901 2.79397 4.08907 3.00321 3.21468 3.32745Z" fill="#726350"/>
<path fill-rule="evenodd" clip-rule="evenodd" d="M31.3402 25.0852C31.4198 24.7609 31.2512 25.0544 31.6524 24.815C31.6375 24.92 31.7616 24.8809 31.3402 25.0852ZM34.6107 25.627C34.8055 25.2581 35.1082 24.9728 35.3792 24.7355C35.2902 24.9474 35.1568 25.0379 35.0098 25.1915C34.8365 25.3726 34.7725 25.5221 34.6107 25.627ZM31.0335 26.2394C31.0463 25.9301 31.1912 25.3925 31.3429 25.2731C31.4056 25.2245 31.6375 25.1038 31.7508 25.0331C32.8733 24.3378 32.9522 24.4104 34.0262 24.5901C33.863 24.9796 33.2401 25.6414 32.9798 25.8663C32.3717 26.3909 31.8438 26.1036 31.0335 26.2394ZM31.8216 24.8274C31.8344 24.6066 31.9214 24.6237 32.1566 24.5922C32.065 24.7074 32.1189 24.6614 31.9874 24.7437C31.9692 24.7547 31.8566 24.8109 31.8216 24.8274ZM30.5015 25.9322C30.3384 25.8951 30.1934 25.9363 30.0512 25.8581C29.8321 25.7381 28.9152 24.4845 29.0574 23.724C29.5698 23.7453 29.7606 23.8413 30.0721 24.0326C30.4125 24.2417 30.1799 24.0374 30.426 24.455C30.7166 24.9495 30.7975 24.7897 30.8919 25.0592C30.9566 25.2437 30.9263 25.8355 30.8413 25.9685C30.7449 26.1201 30.6943 25.9754 30.5015 25.9322ZM35.8963 24.1862C35.9543 23.9517 36.1512 23.7864 36.3561 23.6602C36.2456 23.8584 36.0986 24.0909 35.8963 24.1862ZM36.9373 23.0945C37.0728 22.9889 37.2879 22.8455 37.418 22.7056C37.7207 22.742 38.1569 22.8359 38.3794 22.7763C38.6436 22.7056 39.0427 22.6761 39.3569 22.6933C39.4749 22.7831 39.574 22.9182 39.6313 23.0444C39.1533 23.2556 38.8203 23.4895 38.2499 23.6033C37.9479 23.6636 37.6924 23.7274 37.4106 23.6088C37.0135 23.4415 36.9811 23.5217 36.9373 23.0945ZM33.95 23.6355C34.7185 22.6535 34.7779 22.1035 36.0871 21.9143C35.984 22.7674 36.0689 22.6665 36.373 23.2961C36.2604 23.6074 35.8309 23.988 35.6078 24.2486C35.3327 24.2678 35.2909 24.2095 35.0219 24.3103C34.9141 24.3501 34.5979 24.5113 34.5102 24.4715C34.1313 24.3 34.3343 24.4413 33.9884 24.4077C33.7875 24.3885 33.534 24.3487 33.3068 24.333L33.95 23.6355ZM31.1555 24.9248C31.0402 24.8507 30.9269 24.9378 31.1339 24.6189C30.3808 24.0888 30.5777 23.8269 30.2588 23.6122L30.0997 23.5347C29.2624 21.2902 29.7633 21.9684 30.7806 22.4869C31.8519 23.0321 31.5377 23.7603 31.4184 24.274C31.3348 24.6333 31.3166 24.8144 31.1555 24.9248ZM31.7946 24.4838C31.7906 24.2541 31.7494 23.999 31.798 23.7789C31.8593 23.5032 31.9814 23.3969 32.0171 23.3434C32.1829 23.0951 31.9672 23.0842 32.5949 22.6144L33.5219 22.1899C33.7572 22.1282 34.463 22.1851 34.703 22.2359C34.6188 22.4574 33.8374 23.5471 33.65 23.748C32.9326 24.5167 32.8355 24.1855 31.7946 24.4838ZM36.4809 23.1123C35.9968 22.3655 36.2496 22.2283 36.3979 21.786C36.5011 21.4781 36.4444 21.4671 36.8806 21.0509C37.1031 21.461 37.4955 21.6996 37.3371 22.2565C37.2103 22.7008 36.971 23.0698 36.4809 23.1123ZM37.6674 22.5651C37.7369 22.4005 38.076 22.1447 38.2371 22.0411C38.5021 21.8711 38.9329 21.3519 39.1081 21.0769C39.3003 21.1469 39.1857 21.1003 39.3569 21.221C39.3691 21.2107 39.3825 21.1949 39.3906 21.188L39.4978 21.1023C39.6704 21.0187 40.1302 21.0879 40.2671 21.1304C40.4188 21.1771 40.7336 21.5158 40.803 21.6139C40.6224 21.7648 40.3756 21.8114 40.1066 21.9732L39.5106 22.3833C39.274 22.504 38.0288 22.5891 37.6674 22.5651ZM38.1265 19.368C38.1643 19.4002 38.167 19.3941 38.2162 19.4537C38.5951 19.9077 38.7596 20.7409 38.6409 21.2635C38.5661 21.5926 37.7234 22.3442 37.4294 22.4773C37.6742 21.4658 37.4665 21.8224 37.3883 21.4363L37.3667 21.21C37.3634 21.2004 37.3526 21.186 37.3485 21.1757C37.2164 20.7951 37.2959 20.385 37.5292 20.1285C37.9829 19.6293 37.8346 19.7267 38.0227 19.7411L38.1265 19.368ZM32.2598 22.5808C32.3488 22.1906 32.5767 21.9472 32.7115 21.5439C32.9205 20.9192 33.3446 20.0003 34.0821 19.9386C34.3201 19.9187 34.519 19.9818 34.7367 20.0051C34.9815 20.0318 35.148 19.9777 35.3738 19.9612C34.8332 20.7649 35.6159 20.4289 34.0841 21.5693L32.2598 22.5808ZM32.9434 19.5655C33.0392 20.5263 33.0971 20.1806 32.7196 20.8945L31.7899 23.0122C31.769 23.1651 31.8526 23.137 31.7184 23.3187C31.5971 22.8579 31.5607 22.888 31.291 22.622C30.8568 22.1927 31.1656 22.3093 30.8177 22.0473C30.7833 21.3122 30.9876 20.7142 30.8548 20.0723C31.4744 20.1416 31.4973 20.5366 31.7542 20.9597C31.8667 21.1455 32.069 21.2292 32.0859 21.5138C32.1041 21.8285 31.8708 21.9088 32.0339 22.1522C32.1405 22.072 32.0919 22.1399 32.1519 21.987C32.425 21.2861 32.1148 21.2031 31.8418 20.6751C31.8836 20.4591 31.9497 20.3514 31.8411 20.0997C31.5795 19.4928 31.8546 19.2713 32.0879 18.7659L32.2099 18.5458C32.4243 18.77 32.8821 18.9511 32.9434 19.5655ZM40.646 19.9077C40.7188 19.798 40.646 19.8919 40.6716 19.8268C40.6729 19.8227 40.6851 19.811 40.6871 19.7959C40.6884 19.7802 40.6985 19.774 40.7046 19.7637C41.1556 19.7472 42.0105 19.7562 42.2606 20.2266C41.7995 20.3665 41.3862 20.5482 40.9487 20.745C40.2199 21.0728 40.1558 20.7889 39.4001 20.8671C39.4803 20.6943 39.4789 20.7238 39.6873 20.5345C39.9987 20.252 40.325 19.942 40.646 19.9077ZM42.2438 18.6116C42.3618 18.3983 42.6645 18.1672 43.0487 18.2187C43.311 18.2543 43.5773 18.5376 43.7465 18.6363C43.4162 19.0567 41.6613 19.848 40.9568 19.4297C41.1462 19.2823 41.2979 19.1431 41.4644 18.9449C41.6539 18.7193 41.8204 18.685 42.0031 18.4923L42.2438 18.6116ZM34.2014 19.7267C34.0504 19.7356 33.9264 19.7582 33.7909 19.7822C33.5104 19.8316 33.563 19.8597 33.4335 19.7815C33.6459 19.4441 33.5745 19.9468 33.8441 19.1232C33.9291 18.8626 34.0498 18.5568 34.1859 18.3887L34.6828 18.471L34.5176 18.3147C35.6503 17.9018 35.4379 18.2488 36.017 18.4121C36.0467 18.6672 36.0278 18.6192 36.1451 18.7693C35.3482 19.4428 35.2889 19.6588 34.2014 19.7267ZM42.0253 18.3064C42.0651 18.1412 42.1164 18.1467 42.2829 18.1377L42.0253 18.3064ZM32.7823 18.8516C32.8207 18.6082 32.9036 18.5362 32.816 18.2701C32.6987 17.9142 32.6448 17.4835 32.8349 17.1413L33.0884 16.7395C33.2859 16.9445 33.4201 17.1873 33.5751 17.441C33.7497 17.727 33.9055 17.8929 33.7915 18.2914C33.745 18.4539 33.6439 18.6054 33.6196 18.72C33.5401 19.093 33.4288 19.6499 33.147 19.953C32.9502 19.5127 33.2084 19.1794 32.7823 18.8516ZM42.8593 18.0027C42.9833 17.7462 42.8135 17.9999 43.2146 17.6865C43.3333 17.5939 43.402 17.5418 43.5402 17.4259C44.1551 16.9109 43.8807 17.1194 44.2778 17.1036C44.4039 16.7628 44.1922 17.1304 44.5063 16.7004C46.2053 16.6394 45.2891 16.6318 45.9882 16.961C45.9444 17.0371 45.9363 17.0885 45.8621 17.1694L44.8367 17.9087C44.6068 18.0123 43.191 18.0356 42.8593 18.0027ZM35.2255 16.771C35.2754 16.5077 35.2714 16.5344 35.533 16.4261C36.5489 16.0064 36.7829 16.435 37.031 16.5427C36.6932 17.2216 35.9665 17.8538 35.1979 17.9396C34.8918 17.9739 34.6612 18.0822 34.3417 18.1213C34.4698 17.5857 34.6997 17.1804 34.9296 16.7594C35.1359 16.7415 35.0051 16.7724 35.2255 16.771ZM33.9662 18.1672C33.9978 17.6618 33.9001 17.6447 33.7039 17.308C33.5805 17.0961 33.5839 17.1427 33.5421 16.8677C33.5151 16.6956 33.47 16.6297 33.4484 16.4446C33.3317 15.4331 33.6331 15.3385 33.7572 15.1019C33.8387 14.9469 33.8414 14.844 33.9075 14.7288C34.0808 14.8948 34.3397 15.1704 34.4947 15.3748C34.7523 15.7149 34.5473 15.9824 34.5453 16.3849C34.5412 17.0426 34.6478 16.8245 34.3626 17.3848C34.2378 17.6296 34.1394 17.9752 33.9662 18.1672ZM44.2016 15.466C44.2899 15.2027 44.2501 15.0799 44.3951 14.903C45.0389 16.2375 44.2137 16.6421 43.6656 17.1338C43.3622 17.4054 42.8418 17.8463 42.4656 17.9286C42.589 17.6947 42.744 17.572 42.8896 17.2977C43.0905 16.9191 42.8984 16.71 43.2261 16.5749C43.1566 15.9577 43.64 15.5517 44.1099 15.2603L44.2016 15.466ZM46.0178 14.8324C46.3967 14.7377 46.7702 14.6246 47.1195 14.532C47.0399 14.7514 47.0204 14.7206 46.9381 14.9819C46.8909 15.132 46.8478 15.2658 46.8033 15.3803C46.6212 15.8473 46.5228 15.5689 46.2356 15.8507C46.3455 15.9529 46.2592 15.8932 46.4183 15.946C46.2059 16.1531 46.0475 16.2828 45.7428 16.4631C45.6342 16.4796 44.8556 16.2807 44.656 16.4137C44.6776 16.2972 44.7511 16.0585 44.8225 15.9303C44.9863 15.6347 44.8967 15.1314 45.8028 14.9016L45.825 15.3021L46.0178 14.8324ZM35.2552 16.2999C35.3489 15.9577 35.533 15.7156 35.6624 15.4324C35.8572 15.0052 35.9489 14.6417 36.5503 14.4223C36.7546 14.3475 37.7126 14.4778 38.0342 14.5121C37.9472 14.8015 37.7335 14.9455 37.536 15.1307C36.1141 16.4611 36.7236 15.802 35.2552 16.2999ZM34.6484 14.8378C34.4468 14.196 34.997 13.742 35.2572 13.227C35.4494 13.3538 35.655 13.694 35.7082 14.0115C35.8235 14.7021 35.715 15.0182 35.3941 15.4557C35.3031 15.5798 35.2613 15.6855 35.1763 15.8301L34.7125 16.592C34.8136 15.6601 34.8938 15.6738 34.486 15.0086L34.6484 14.8378ZM35.9462 14.4963C35.982 14.0643 35.8734 14.0108 36.0231 13.5884C36.1896 13.1166 36.7944 12.618 37.2265 12.5412L37.4577 12.461C37.4672 12.4363 37.4928 12.4418 37.4888 12.4336C37.4692 13.7495 37.5386 13.0521 37.184 13.7008C36.9663 14.1 37.093 14.1315 36.8362 14.1973C36.1289 14.3777 36.4215 14.4044 35.9462 14.4963ZM36.5752 12.6091C36.7296 12.5028 36.6615 12.4576 36.9049 12.3485C36.8496 12.5364 36.7997 12.5851 36.5752 12.6091ZM37.1301 12.1023C37.2757 11.374 37.78 10.606 38.1245 9.94765C38.2432 9.72135 38.3874 9.60477 38.4582 9.31332C38.227 9.29892 38.2162 9.39904 38.1232 9.59174C38.0524 9.73986 37.9877 9.89965 37.927 10.0471C37.7692 10.4304 37.6809 10.5943 37.4861 10.9091C37.3243 11.1697 37.0168 12.1256 36.8678 12.2477C36.7499 12.3444 36.5719 12.4212 36.4445 12.4466C36.46 12.0008 36.6696 11.4639 36.8186 11.0654C36.911 10.8179 37.3249 10.0238 37.2481 9.83587C36.9845 9.92914 36.9926 10.1822 36.9076 10.4435C36.8361 10.6656 36.7451 10.9084 36.6615 11.1464C36.4734 11.6833 36.3325 11.9892 36.3116 12.6379C36.1161 12.8347 36.131 12.7655 35.9927 13.0809L35.7339 13.5369L35.4332 13.061C35.2842 12.5412 36.0217 10.9729 35.8417 10.6656C35.6793 10.7267 35.7689 10.5724 35.6759 10.8481C35.5303 11.2808 35.4574 12.5632 35.3637 12.7531C35.2141 12.8971 35.2559 12.7593 35.1777 12.9568C34.7994 13.9141 34.4381 13.7125 34.3767 14.9153L34.1893 14.7302C34.0592 14.5834 33.7808 14.3935 33.7457 14.1829C33.6816 13.7969 33.8354 12.8622 33.7693 12.594C33.7127 12.3609 33.7578 12.5385 33.6742 12.4733C33.5313 12.6852 33.6243 14.3318 33.6601 14.6801C33.7086 15.1581 33.4356 15.0463 33.3122 15.4777C33.2239 15.7883 33.2717 16.2155 33.2724 16.5673C33.1753 16.4659 33.1443 16.2924 33.0304 16.2272C32.847 16.3671 32.9556 16.4576 32.8632 16.7504L32.6987 16.3061C32.5632 15.8171 32.5767 15.1787 32.3158 15.0882C32.187 15.3851 32.6852 16.4576 32.7142 16.8231C32.729 17.0138 32.5126 17.201 32.5281 17.6975C32.5403 18.1137 32.663 18.2392 32.6724 18.5952C32.3973 18.4916 32.2901 18.1508 32.0373 18.1172C31.9773 18.3387 32.0441 18.4443 31.9173 18.6658C31.6584 18.3531 31.5364 17.4294 31.4993 17.0412C31.4488 16.5152 31.4225 16.6284 31.3314 16.5769C31.1643 16.9486 31.711 18.5012 31.8364 18.829C31.7562 19.0532 31.5977 19.1808 31.5661 19.4825C31.5202 19.9194 31.6389 19.9646 31.6773 20.326C31.5445 20.206 31.4393 20.0394 31.2856 19.9537C31.0935 19.8474 30.9202 19.8865 30.7456 19.7952C30.5062 19.4572 30.6033 18.4367 30.335 18.2022C30.1233 18.445 30.3943 18.8729 30.4516 19.1301C30.8245 20.7944 30.6438 20.5907 30.6316 22.1666C30.4665 22.0795 30.2231 21.9815 30.0465 21.8642C29.524 21.5165 29.4923 21.2936 29.4309 20.6778C29.3891 20.252 29.408 20.099 29.2219 20.0078C29.0615 20.2581 29.2786 20.6298 29.3284 20.9281C29.3891 21.2943 29.437 21.5097 29.4849 21.8957C29.6055 22.8606 29.8988 23.3139 29.9426 23.676C29.6851 23.6225 29.5496 23.58 29.2954 23.519C28.9597 23.438 29.0325 23.3537 28.7453 23.5087C28.694 23.2405 28.4938 22.122 28.3435 22.0075C28.1358 22.179 28.2821 22.4444 28.3718 22.6117C28.8565 23.5169 28.6415 24.42 29.6109 25.6428C29.8597 25.9568 29.9089 26.0151 30.2204 26.1235L30.6431 26.3251L29.6305 29.1299C29.3628 29.8232 28.2053 33.4584 28.0374 34.186C27.941 34.605 27.8567 34.6133 27.7886 34.8848C27.7232 35.1447 27.7057 35.4396 27.6416 35.6865L27.287 37.2336C27.2412 37.4386 27.1232 37.7698 27.2304 37.9536C27.3888 37.8419 27.4273 37.3783 27.4616 37.1746C27.5237 36.805 27.6389 36.7453 27.6909 36.4573C27.765 36.0438 27.8864 35.2353 28.0145 34.8739C28.1149 34.5906 28.2336 34.7593 28.3172 34.2457C28.3853 33.8281 28.4102 33.4427 28.572 33.0614C28.634 32.9139 28.6934 32.8831 28.7399 32.7555C28.8107 32.5601 28.839 32.2186 28.9158 31.9847C29.048 31.5808 29.1343 31.5719 29.2435 31.3044C29.3298 31.0925 29.3723 30.762 29.4323 30.5432C29.7073 29.5407 30.366 27.231 30.9795 26.3964C31.4892 26.3525 32.0643 26.4191 32.5126 26.2819C32.9805 26.1393 33.1295 25.904 33.4309 25.6098C33.8617 25.1895 34.6761 24.2829 35.4062 24.4413C35.2377 24.695 34.9963 24.8857 34.8001 25.1538C34.6019 25.424 33.8839 26.4602 33.6621 26.6166C33.4389 26.7736 33.2623 27.1041 33.0614 27.3188C32.816 27.5807 31.707 29.3411 31.5027 29.7238C31.3261 30.0536 31.3908 29.8163 31.1737 30.0461C30.8575 30.38 30.6761 30.9088 30.4058 31.2894C30.1476 31.6521 29.7289 32.7946 29.5139 33.0017C29.3487 33.1608 29.3399 33.0099 29.195 33.3343C29.1518 33.431 29.1343 33.5058 29.0709 33.5675C28.9394 33.695 29.0379 33.5078 28.901 33.6937C28.8606 33.7485 28.6563 34.581 28.5983 34.7532C28.4797 35.1036 28.3623 35.3107 28.2538 35.7139C28.1473 36.1089 27.7387 37.5559 27.8318 37.8638C28.0563 37.7842 28.0313 37.37 28.0724 37.1533C28.1399 36.7947 28.2214 36.7727 28.3212 36.4347C28.4648 35.9498 28.5019 35.4355 28.7345 34.9548C28.8282 34.7614 28.7594 34.8183 28.9064 34.651C29.1289 34.3986 29.2381 34.0215 29.3837 33.7067C29.793 32.822 29.7518 33.1217 30.0963 32.5285C30.0896 32.5251 30.0781 32.5196 30.0761 32.5183L29.9912 32.4689C30.2595 31.9936 30.4651 31.5424 30.7908 31.1632C30.7604 31.3024 30.6842 31.4005 30.7456 31.4937C30.9546 31.1783 30.9573 30.9156 31.1157 30.6461C31.2101 30.4863 31.2822 30.5083 31.4211 30.356C31.5094 30.2587 31.6004 30.1476 31.6793 30.0228C31.5121 30.1812 31.651 30.1167 31.4427 30.2271C31.5128 29.865 32.0535 29.2053 32.3387 29.062L32.2106 29.3624C32.7243 28.905 32.5591 28.5909 32.903 28.0512C33.0756 27.781 33.5718 27.039 33.7909 26.9389L33.6075 27.3551C33.8529 27.1357 33.9992 26.7777 34.1758 26.4869C34.345 26.2085 34.5156 25.8115 34.8392 25.8005C34.7651 25.8924 34.7185 25.9452 34.7037 26.083C35.2464 25.3376 36.1161 24.1835 36.7802 23.5498C37.1469 23.6712 37.451 23.9174 37.9492 23.8378C38.3632 23.772 38.7798 23.6918 39.1129 23.521C39.667 23.2357 39.663 23.3338 40.2934 23.2302C40.5839 23.1822 41.0356 23.0711 41.3417 23.1658C41.5278 23.2227 41.3774 23.235 41.5837 23.2878C41.6134 22.6775 40.4174 23.2549 39.9145 22.9806C39.7109 22.8695 39.6448 22.8078 39.5895 22.5815C39.9933 22.1989 40.7215 21.7963 41.4658 21.751C41.7833 21.3286 42.5074 21.6262 42.9105 21.6098C42.6564 20.9117 40.9514 22.013 40.6021 21.092C40.6979 21.0125 42.0044 20.4604 42.1844 20.4405C42.5883 20.396 42.1467 20.5372 42.6018 20.409C43.3804 20.1902 44.0425 20.5043 44.0526 20.5064C43.9818 19.835 42.8674 20.6703 41.9336 19.667C43.189 19.357 43.3595 19.0388 43.8146 18.8852C44.3027 18.72 45.0962 18.7426 45.6026 18.8503C46.2518 18.9881 45.9895 18.9614 46.088 18.8722C45.5533 18.5472 43.5989 18.8468 43.3622 18.1371C44.4113 18.098 44.8239 18.2413 45.5311 17.657C46.1203 17.1708 46.6003 16.9774 47.5584 17.0789C47.5705 17.0906 47.5867 17.107 47.5941 17.1153L47.7471 17.2682L47.7647 17.011C47.0884 16.7072 46.3111 17.3361 45.8938 16.625C45.9376 16.5625 45.9194 16.5708 45.9794 16.5118L46.2336 16.35C46.7884 16.018 46.4945 15.8541 47.3285 15.6717C48.3647 15.4447 49.0348 15.7074 49.3665 15.6985L49.4285 15.6717C48.8494 15.3679 48.0026 15.5209 47.3588 15.5764C47.4431 15.4365 47.3258 15.5462 47.4869 15.418L47.9062 15.1876C48.097 15.0827 48.2373 15.0045 48.4382 14.8954C48.6242 14.7946 48.8528 14.6911 49.0281 14.6019C49.3989 14.4127 49.4589 14.6054 49.6126 14.3612C49.5796 14.3345 49.6773 14.2501 49.3827 14.2906C49.1912 14.3167 48.4139 14.7466 48.2609 14.8378C47.8847 15.0635 47.4067 15.3391 46.9637 15.501C47.0547 15.2411 47.0979 14.9263 47.2685 14.7185L47.4539 14.5533C47.5846 14.4319 47.6763 14.351 47.8368 14.2268C47.9056 14.1733 47.9534 14.1315 48.0478 14.0828C48.337 13.9333 48.6849 13.5575 48.9748 13.36C49.1488 13.2414 49.4447 12.9143 49.56 12.8827L49.7353 12.8807C49.8593 12.7092 50.0164 12.6235 50.1 12.4507C49.7703 12.4678 49.3557 12.8121 49.0955 13.0069L47.8422 14.0547C47.5287 14.2927 46.5221 14.6355 46.1668 14.6541C46.3677 14.2111 46.9893 13.36 47.3541 13.0206C47.5213 12.8656 47.7222 12.7757 47.8321 12.5755C47.6271 12.4706 47.5314 12.6379 47.406 12.7778L46.4075 14.0266C46.0367 14.5491 46.1925 14.5992 45.6228 14.7748C45.2425 14.8913 45.138 15.2486 44.805 15.429C44.7079 15.2918 44.5893 14.9092 44.5387 14.6856C44.4794 14.4236 44.6459 14.2076 44.745 14.0033C44.9196 13.646 45.3632 12.9801 45.4138 12.6818C45.1893 12.7442 45.316 12.6393 45.1691 12.8855L44.2845 14.5464C43.8254 15.7122 43.4721 15.2006 43.0326 16.1929C42.2013 15.0203 43.4236 13.9546 43.2193 13.7612C42.9827 13.5369 42.6132 15.1944 42.3833 15.4729C42.1615 15.7424 41.8656 15.8349 41.6646 16.051C41.5831 16.1387 41.4604 16.3328 41.4172 16.4535L41.2473 16.9027C41.2419 16.8924 41.2204 16.9253 41.2069 16.937C41.0673 16.5653 40.9021 16.3897 41.0916 15.8843C41.1853 15.6347 41.484 15.1259 41.4968 14.9832C41.1577 14.9819 40.8226 16.1737 40.7457 16.4885C40.5448 17.3073 40.257 17.1818 39.9185 17.919C39.6738 17.4376 39.6987 17.0981 39.903 16.5852C40.0911 16.1127 39.9799 16.2533 39.9428 16.1861C39.5309 16.4398 39.5646 17.6886 39.2706 18.0856C39.1567 18.2399 39.1061 18.2715 38.9888 18.4525C38.7886 18.7625 38.3106 19.6787 38.9618 19.6718C38.945 19.32 39.0111 19.5957 38.8344 19.3646C38.9153 18.8736 39.0677 18.506 39.4129 18.1714L39.6482 17.8168C39.7877 18.1864 40.0399 18.5492 40.1437 18.9216C40.2462 19.2892 39.9455 19.4846 39.876 19.7932C39.7911 20.171 39.9246 20.0435 39.9718 20.0846C40.1605 19.3817 40.4734 19.3584 40.2111 18.615C39.9576 17.8984 40.3109 17.7002 40.5799 17.2113L40.7862 17.3676C40.7828 17.1475 40.8125 16.9713 40.9547 16.8499L41.3849 17.7818C41.5494 18.2358 41.0875 18.5314 41.2318 18.8119C41.3862 18.7111 41.4644 18.4745 41.5366 18.2495C41.666 17.8442 41.6033 17.801 41.4557 17.5185C41.6019 17.3169 41.4685 17.1797 41.4712 16.9315C41.4779 16.3712 42.1116 15.7026 42.5202 15.6779C42.7615 15.979 42.9328 16.4069 42.8532 16.8965C42.7622 17.4554 42.4191 17.6049 42.3577 17.9224C41.9741 17.9601 41.7705 18.1302 41.8784 18.4642C41.7064 18.5403 41.31 18.8701 41.2022 18.9764C40.9406 19.235 40.861 19.3701 40.4869 19.4428C40.4471 19.8 39.5329 20.4851 39.2416 20.7978C39.0758 20.9748 38.9612 21.0694 38.8398 21.1949C38.7266 19.5278 38.8034 20.2664 38.3679 19.296C37.96 18.3867 38.7185 17.9108 38.5196 17.6077C38.1157 17.8977 38.0922 18.9422 37.9209 19.3941C37.6438 20.1237 37.155 19.822 37.1207 20.9871C36.9777 20.8136 37.0512 20.8095 36.9595 20.6621C36.9049 20.5736 36.8483 20.6031 36.7735 20.5564C36.8341 20.361 37.0033 20.0744 36.8968 19.9015C36.7229 20.0263 36.7472 20.0833 36.6818 20.3507C36.317 21.8477 36.313 21.5954 35.6024 21.8656C35.2262 22.0089 34.8952 22.0898 34.4961 22.0521C34.2918 22.0322 34.128 21.9732 33.8556 21.9691C33.9392 21.7991 34.0909 21.762 34.2304 21.6578C34.6538 21.3437 35.0786 21.1551 35.2902 20.5907C35.4952 20.0442 35.5592 20.1402 36.0116 19.8954C36.3635 19.7054 36.6791 19.5573 37.1294 19.6231C36.9198 19.0917 36.3534 19.7287 36.0211 19.7109C35.7123 19.6938 35.9813 19.5902 35.4925 19.7205C35.2896 19.7747 35.1136 19.8275 34.8561 19.8227C35.2451 19.5559 35.4487 19.6272 36.0743 19.0635C36.5058 18.6754 36.7424 18.7268 36.7694 18.4827C36.7856 18.3332 36.5887 18.4635 36.8449 18.3044C36.8483 18.3023 37.0411 18.2118 37.0485 18.2077C37.3937 18.0513 37.9101 18.0534 38.0308 17.9951C37.9634 17.919 38.1184 17.9505 37.8825 17.8833C37.5777 17.7962 37.1416 18.028 36.8658 18.1446C36.4438 18.3229 36.431 18.2221 36.0689 18.0603L35.837 17.9354C36.0635 17.7469 36.3022 17.644 36.5024 17.4753C36.8901 17.1482 37.3067 16.3006 38.6268 16.293L38.5762 16.5372C38.6969 16.4199 38.8027 16.3877 38.8034 16.1717C38.0955 16.0345 37.2784 16.8279 36.7317 16.0887L37.3593 15.4873C37.4557 15.4022 37.4591 15.4187 37.5508 15.3247C37.6944 15.1787 37.7915 15.0881 37.9371 14.9428C38.2277 14.652 38.1879 14.833 38.4144 14.6561C38.5081 14.5827 38.6746 14.3153 38.7994 14.2111C39.0819 13.9745 40.1383 13.4787 40.2414 13.349C39.9859 13.238 39.2187 13.7283 39.0043 13.8839C38.5176 14.2385 38.3996 14.4127 37.6216 14.3304L38.0106 13.886C38.5068 13.4396 38.4441 13.4396 39.1931 12.8244C39.4837 12.5851 39.7014 12.4226 40.0095 12.1654C40.4295 11.815 40.4437 11.6744 40.855 11.7622L40.8253 11.564C40.5313 11.5311 40.4073 11.6676 40.2441 11.8088L38.5513 13.1838C38.2944 13.3785 37.5117 14.2165 37.2912 14.2447C37.3977 14.0499 37.4699 13.9189 37.5865 13.6926C37.7153 13.443 37.6735 13.3209 37.7793 13.1104C38.1778 12.9664 38.2088 13.0117 38.3901 12.6571C38.1427 12.6777 38.3254 12.7853 38.0133 12.9232C38.1252 12.6544 38.2964 12.5104 38.4967 12.295C38.6895 12.0872 38.8122 11.9357 38.9962 11.73C39.1641 11.5407 39.39 11.3487 39.5592 11.1717C40.0116 10.6986 39.9981 10.617 40.3473 10.7788C40.4012 9.75564 38.6477 12.1592 37.8292 12.5796C38.1036 11.8061 39.0522 10.9352 39.5619 10.2796C39.7001 10.1026 39.8774 9.87222 40.0769 9.79335L40.2873 9.70078C39.9866 9.47996 39.7682 9.8777 39.5612 10.104L38.3079 11.5667C38.1488 11.7622 37.8865 12.1853 37.7126 12.3314C37.7133 11.8369 37.7969 11.7073 38.0193 11.3932L39.0084 10.0155L39.6536 9.47722C39.4816 9.34555 39.3913 9.37572 39.183 9.5986L38.3207 10.6862C38.1279 10.9571 37.9796 11.1601 37.7807 11.4481C37.5508 11.7821 37.5501 12.0351 37.1301 12.1023Z" fill="#726350"/>
</svg>
