<svg width="198" height="22" viewBox="0 0 198 22" fill="none" xmlns="http://www.w3.org/2000/svg">
<path d="M0.689979 21H6.40998C6.77398 21 7.03398 20.818 7.03398 20.506V20.402C7.03398 19.674 5.86398 19.362 5.86398 18.166V13.252H8.77598C9.97198 13.252 10.336 15.202 11.09 15.202H11.324C11.636 15.202 11.818 14.968 11.818 14.604V9.924C11.818 9.56 11.636 9.326 11.324 9.326H11.09C10.336 9.326 9.97198 11.432 8.77598 11.432H5.86398V5.608C5.86398 4.672 6.43598 4.36 7.05998 4.36H9.55598C11.402 4.36 12.156 7.402 13.612 7.402H13.742C14.184 7.402 14.47 7.116 14.392 6.648L13.768 3.372C13.664 2.8 13.456 2.54 12.884 2.54H0.663979C0.299979 2.54 0.065979 2.722 0.065979 3.034V3.138C0.065979 3.866 1.10598 4.178 1.10598 5.374V18.166C1.10598 19.362 0.065979 19.674 0.065979 20.402V20.506C0.065979 20.818 0.325979 21 0.689979 21Z" fill="#304564"/>
<path d="M26.3203 18.166L25.7483 13.512C25.3323 10.288 22.9143 8.26 19.4303 8.26C16.7783 8.26 14.2303 9.17 14.2303 11.302C14.2303 12.316 14.9583 12.992 16.0503 12.992C18.3643 12.992 17.6363 9.508 19.4303 9.508C20.7823 9.508 20.9643 10.834 21.2763 13.902V13.98C20.6263 13.59 19.7423 13.33 18.6503 13.33C16.1803 13.33 13.9703 14.682 13.9703 17.308C13.9703 19.986 16.1023 21.26 18.8843 21.26C20.6003 21.26 21.6403 20.662 22.1863 19.908C22.3943 20.844 23.1483 21.156 24.7083 21.156C26.1383 21.156 27.6463 20.974 27.6463 20.298C27.6463 19.57 26.5543 20.012 26.3203 18.166ZM20.3143 19.934C19.2483 19.934 18.6243 18.322 18.6243 16.476C18.6243 15.41 19.1703 14.708 19.9503 14.708C20.7043 14.708 21.3803 15.306 21.5623 16.866L21.6663 18.062C21.6663 18.946 21.1723 19.934 20.3143 19.934Z" fill="#304564"/>
<path d="M37.0006 8.26C35.2066 8.26 33.9846 9.17 33.4126 10.834V8.936C33.4126 8.416 33.1526 8.052 32.4766 8.364L28.8106 10.08C28.4206 10.288 28.2126 10.522 28.2126 10.834V10.912C28.2126 11.666 29.4606 11.77 29.4606 12.992V18.166C29.4606 19.362 28.4206 19.674 28.4206 20.402V20.506C28.4206 20.818 28.6806 21 29.0446 21H34.6346C34.9986 21 35.2586 20.818 35.2586 20.506V20.402C35.2586 19.674 33.8806 19.362 33.8806 18.166V13.33C33.8806 12.186 34.0106 10.834 34.8426 10.834C36.1426 10.834 35.0766 13.278 37.4426 13.278C38.9506 13.278 39.4446 12.134 39.4446 10.834C39.4446 9.378 38.5346 8.26 37.0006 8.26Z" fill="#304564"/>
<path d="M62.1192 18.166L61.7812 13.72C61.4692 9.508 59.2332 8.26 56.9972 8.26C55.2812 8.26 53.8512 9.04 53.1492 10.392C52.2392 8.988 50.6792 8.26 48.8852 8.26C47.4032 8.26 46.1812 8.884 45.4272 9.924V8.988C45.4272 8.468 45.0892 8.052 44.4392 8.364L40.5392 10.158C40.1752 10.34 39.9152 10.496 39.9152 10.808V10.886C39.9152 11.64 41.2932 11.822 41.2932 13.044V18.166C41.2932 19.362 40.1492 19.7 40.1492 20.428V20.532C40.1492 20.844 40.3832 21.026 40.7732 21.026H46.3892C46.7792 21.026 47.0132 20.844 47.0132 20.532V20.428C47.0132 19.7 45.8692 19.362 45.8692 18.166V12.446C45.8692 11.042 46.4152 9.976 47.6112 9.976C48.7032 9.976 49.3792 11.016 49.3792 13.226V18.166C49.3792 19.362 48.4692 19.7 48.4692 20.428V20.532C48.4692 20.844 48.7032 21.026 49.0932 21.026H54.2672C54.6312 21.026 54.8912 20.844 54.8912 20.532V20.428C54.8912 19.7 53.9552 19.362 53.9552 18.166V13.538C53.9552 13.148 53.9292 12.81 53.8772 12.446C53.8772 11.016 54.4232 9.976 55.4892 9.976C56.6072 9.976 57.1532 10.938 57.2832 13.564L57.5432 18.166C57.6212 19.362 56.6072 19.7 56.6072 20.428V20.532C56.6072 20.844 56.8672 21.026 57.2312 21.026H62.4312C62.7952 21.026 63.0552 20.844 63.0552 20.532V20.428C63.0552 19.7 62.1972 19.362 62.1192 18.166Z" fill="#304564"/>
<path d="M74.6752 16.892C74.2072 17.516 73.1932 18.036 72.0752 18.036C70.8012 18.036 69.7872 17.412 69.1112 16.346L74.2852 13.434C74.8832 13.122 75.2992 12.602 75.2992 11.822C75.2992 10.184 73.7392 8.26 70.3332 8.26C66.9272 8.26 63.9372 10.834 63.9372 14.682C63.9372 18.634 66.5892 21.26 70.3592 21.26C73.7652 21.26 75.5852 18.686 75.6372 17.256C75.6632 16.684 75.0392 16.528 74.6752 16.892ZM69.8652 9.534C71.1912 9.534 71.6072 11.38 71.6072 12.212C71.6072 12.758 71.3472 13.252 70.9312 13.538L68.5132 14.994C68.2532 14.214 68.1232 13.278 68.1232 12.264C68.1232 10.756 68.7992 9.534 69.8652 9.534Z" fill="#304564"/>
<path d="M85.4459 8.26C83.6519 8.26 82.4299 9.17 81.8579 10.834V8.936C81.8579 8.416 81.5979 8.052 80.9219 8.364L77.2559 10.08C76.8659 10.288 76.6579 10.522 76.6579 10.834V10.912C76.6579 11.666 77.9059 11.77 77.9059 12.992V18.166C77.9059 19.362 76.8659 19.674 76.8659 20.402V20.506C76.8659 20.818 77.1259 21 77.4899 21H83.0799C83.4439 21 83.7039 20.818 83.7039 20.506V20.402C83.7039 19.674 82.3259 19.362 82.3259 18.166V13.33C82.3259 12.186 82.4559 10.834 83.2879 10.834C84.5879 10.834 83.5219 13.278 85.8879 13.278C87.3959 13.278 87.8899 12.134 87.8899 10.834C87.8899 9.378 86.9799 8.26 85.4459 8.26Z" fill="#304564"/>
<path d="M90.2066 9.846C92.8326 8.26 94.0806 6.336 94.0806 4.126C94.0806 2.098 92.7546 0.954002 91.2986 0.954002C89.6866 0.954002 88.6726 2.098 88.6726 3.736C88.6726 5.166 89.5306 6.154 90.5446 6.154C90.8566 6.154 90.9086 6.388 90.8826 6.726C90.8046 7.506 90.3366 8 89.3746 8.962C88.9066 9.456 89.6086 10.21 90.2066 9.846Z" fill="#304564"/>
<path d="M99.5426 21.234C103.157 21.234 105.211 19.57 105.211 17.412C105.211 12.628 98.5546 14.5 98.5546 10.938C98.5546 10.184 98.9706 9.456 99.7766 9.456C101.571 9.456 100.739 12.966 103.261 12.966C104.223 12.966 105.003 12.29 105.003 11.38C105.003 9.69 102.845 8.26 99.5426 8.26C96.2926 8.26 94.0566 9.898 94.0566 12.212C94.0566 17.256 100.947 15.254 100.947 18.66C100.947 19.7 100.323 20.09 99.5426 20.09C97.3846 20.09 98.2686 16.528 95.6686 16.528C94.6286 16.528 93.8226 17.022 93.8226 18.192C93.8226 20.012 96.2666 21.234 99.5426 21.234Z" fill="#304564"/>
<path d="M123.61 11.068C125.43 10.6 126.626 9.17 126.626 7.22C126.626 4.62 124.494 2.54 119.814 2.54H112.612C112.248 2.54 111.988 2.722 111.988 3.034V3.138C111.988 3.866 113.028 4.178 113.028 5.374V18.166C113.028 19.362 111.988 19.674 111.988 20.402V20.506C111.988 20.818 112.248 21 112.612 21H119.736C125.742 21 128.446 18.868 128.446 15.8C128.446 13.304 126.6 11.484 123.61 11.068ZM117.708 5.712C117.708 4.672 118.254 4.36 118.93 4.36H119.658C121.426 4.36 122.596 5.66 122.596 7.896C122.596 9.378 121.738 10.34 120.412 10.34H119.112C118.28 10.34 117.708 9.846 117.708 8.988V5.712ZM120.906 19.18H119.658C118.462 19.18 117.708 18.218 117.708 16.97V12.16H118.8C121.92 12.16 123.506 14.552 123.506 16.476C123.506 18.088 122.57 19.18 120.906 19.18Z" fill="#304564"/>
<path d="M142 18.166L141.428 13.512C141.012 10.288 138.594 8.26 135.11 8.26C132.458 8.26 129.91 9.17 129.91 11.302C129.91 12.316 130.638 12.992 131.73 12.992C134.044 12.992 133.316 9.508 135.11 9.508C136.462 9.508 136.644 10.834 136.956 13.902V13.98C136.306 13.59 135.422 13.33 134.33 13.33C131.86 13.33 129.65 14.682 129.65 17.308C129.65 19.986 131.782 21.26 134.564 21.26C136.28 21.26 137.32 20.662 137.866 19.908C138.074 20.844 138.828 21.156 140.388 21.156C141.818 21.156 143.326 20.974 143.326 20.298C143.326 19.57 142.234 20.012 142 18.166ZM135.994 19.934C134.928 19.934 134.304 18.322 134.304 16.476C134.304 15.41 134.85 14.708 135.63 14.708C136.384 14.708 137.06 15.306 137.242 16.866L137.346 18.062C137.346 18.946 136.852 19.934 135.994 19.934Z" fill="#304564"/>
<path d="M155.878 16.84H155.696C154.37 16.84 153.512 19.856 151.51 19.856H149.014L154.942 10.808C155.306 10.236 155.748 9.612 155.748 9.274V9.014C155.748 8.754 155.514 8.52 155.15 8.52H145.478C144.88 8.52 144.75 8.78 144.568 9.326L143.866 11.432C143.684 11.978 143.892 12.42 144.464 12.42H144.62C146.05 12.42 146.622 9.664 148.364 9.664H150.574L144.464 18.972C144.256 19.258 143.892 19.7 143.892 20.038V20.376C143.892 20.74 144.23 21 144.568 21H154.994C155.358 21 155.54 20.714 155.644 20.376L156.424 17.646C156.58 17.1 156.346 16.84 155.878 16.84Z" fill="#304564"/>
<path d="M169.65 18.166L169.078 13.512C168.662 10.288 166.244 8.26 162.76 8.26C160.108 8.26 157.56 9.17 157.56 11.302C157.56 12.316 158.288 12.992 159.38 12.992C161.694 12.992 160.966 9.508 162.76 9.508C164.112 9.508 164.294 10.834 164.606 13.902V13.98C163.956 13.59 163.072 13.33 161.98 13.33C159.51 13.33 157.3 14.682 157.3 17.308C157.3 19.986 159.432 21.26 162.214 21.26C163.93 21.26 164.97 20.662 165.516 19.908C165.724 20.844 166.478 21.156 168.038 21.156C169.468 21.156 170.976 20.974 170.976 20.298C170.976 19.57 169.884 20.012 169.65 18.166ZM163.644 19.934C162.578 19.934 161.954 18.322 161.954 16.476C161.954 15.41 162.5 14.708 163.28 14.708C164.034 14.708 164.71 15.306 164.892 16.866L164.996 18.062C164.996 18.946 164.502 19.934 163.644 19.934Z" fill="#304564"/>
<path d="M183.895 18.166L183.323 13.512C182.907 10.288 180.489 8.26 177.005 8.26C174.353 8.26 171.805 9.17 171.805 11.302C171.805 12.316 172.533 12.992 173.625 12.992C175.939 12.992 175.211 9.508 177.005 9.508C178.357 9.508 178.539 10.834 178.851 13.902V13.98C178.201 13.59 177.317 13.33 176.225 13.33C173.755 13.33 171.545 14.682 171.545 17.308C171.545 19.986 173.677 21.26 176.459 21.26C178.175 21.26 179.215 20.662 179.761 19.908C179.969 20.844 180.723 21.156 182.283 21.156C183.713 21.156 185.221 20.974 185.221 20.298C185.221 19.57 184.129 20.012 183.895 18.166ZM177.889 19.934C176.823 19.934 176.199 18.322 176.199 16.476C176.199 15.41 176.745 14.708 177.525 14.708C178.279 14.708 178.955 15.306 179.137 16.866L179.241 18.062C179.241 18.946 178.747 19.934 177.889 19.934Z" fill="#304564"/>
<path d="M194.575 8.26C192.781 8.26 191.559 9.17 190.987 10.834V8.936C190.987 8.416 190.727 8.052 190.051 8.364L186.385 10.08C185.995 10.288 185.787 10.522 185.787 10.834V10.912C185.787 11.666 187.035 11.77 187.035 12.992V18.166C187.035 19.362 185.995 19.674 185.995 20.402V20.506C185.995 20.818 186.255 21 186.619 21H192.209C192.573 21 192.833 20.818 192.833 20.506V20.402C192.833 19.674 191.455 19.362 191.455 18.166V13.33C191.455 12.186 191.585 10.834 192.417 10.834C193.717 10.834 192.651 13.278 195.017 13.278C196.525 13.278 197.019 12.134 197.019 10.834C197.019 9.378 196.109 8.26 194.575 8.26Z" fill="#304564"/>
</svg>
