<svg width="14" height="14" viewBox="0 0 16 16" fill="none" xmlns="http://www.w3.org/2000/svg">
<path d="M11.1469 10.2311C12.0182 9.15882 12.5543 7.77383 12.5543 6.27714C12.5543 2.81467 9.73962 0 6.27714 0C2.81466 0 0 2.81467 0 6.27714C0 9.73962 2.81466 12.5543 6.27714 12.5543C7.77383 12.5543 9.15881 12.0182 10.2311 11.1469L14.8998 15.8157C15.1456 16.0614 15.57 16.0614 15.8157 15.8157C16.0614 15.57 16.0614 15.1455 15.8157 14.8998L11.1469 10.2311ZM6.27714 11.2586C3.5295 11.2586 1.29563 9.02479 1.29563 6.27714C1.29563 3.5295 3.5295 1.29565 6.27714 1.29565C9.02479 1.29565 11.2586 3.5295 11.2586 6.27714C11.2586 9.02479 9.02479 11.2586 6.27714 11.2586Z" fill="#354A69"/>
</svg>
